<svg xmlns="http://www.w3.org/2000/svg" xmlns:xlink="http://www.w3.org/1999/xlink" width="1080" zoomAndPan="magnify" viewBox="0 0 810 809.999993" height="1080" preserveAspectRatio="xMidYMid meet" version="1.0"><defs><clipPath id="id1"><path d="M 86.464844 216 L 530 216 L 530 665 L 86.464844 665 Z M 86.464844 216 " clip-rule="nonzero"/></clipPath><clipPath id="id2"><path d="M 118.777344 212.003906 L 552.210938 212.003906 L 552.210938 701.53125 L 118.777344 701.53125 Z M 118.777344 212.003906 " clip-rule="nonzero"/></clipPath><clipPath id="id3"><path d="M 104 224 L 522 224 L 522 702.761719 L 104 702.761719 Z M 104 224 " clip-rule="nonzero"/></clipPath></defs><g clip-path="url(#id1)"><path fill="#fa8080" d="M 453.574219 275.738281 L 454.601562 275.738281 L 454.601562 276.476562 C 454.261719 276.226562 453.917969 275.988281 453.574219 275.738281 Z M 461.082031 281.34375 L 463.085938 281.34375 L 463.085938 275.738281 L 468.6875 275.738281 L 468.6875 267.25 L 463.085938 267.25 L 463.085938 261.640625 L 454.601562 261.640625 L 454.601562 267.25 L 449.003906 267.25 L 449.003906 272.53125 C 396.953125 236.785156 327.847656 216.660156 267.582031 216.660156 C 152.84375 216.660156 86.464844 341.828125 86.464844 456.6875 C 86.464844 571.542969 245.769531 664.65625 360.507812 664.65625 C 475.246094 664.65625 529.15625 519.289062 529.15625 404.433594 C 529.15625 354.699219 501.617188 312.835938 461.082031 281.34375 " fill-opacity="1" fill-rule="nonzero"/></g><path fill="#d1edf1" d="M 354.371094 322.601562 C 354.71875 324.566406 355.40625 326.535156 356.664062 328.113281 C 356.738281 328.207031 356.875 328.230469 356.980469 328.167969 C 357.097656 328.097656 357.128906 327.945312 357.0625 327.832031 C 356.078125 326.195312 355.554688 324.339844 355.3125 322.457031 C 355.21875 321.519531 355.109375 320.550781 355.148438 319.617188 C 355.144531 318.71875 355.394531 317.785156 355.625 316.878906 C 356.128906 315.042969 356.894531 313.261719 357.6875 311.503906 C 358.492188 309.742188 359.378906 308.007812 360.285156 306.289062 C 360.335938 306.199219 360.3125 306.082031 360.226562 306.019531 C 360.136719 305.957031 360.003906 305.976562 359.941406 306.070312 C 358.792969 307.667969 357.792969 309.355469 356.875 311.097656 C 355.960938 312.847656 355.179688 314.671875 354.59375 316.585938 C 354.355469 317.5625 354.105469 318.550781 354.117188 319.605469 C 354.109375 320.625 354.199219 321.609375 354.371094 322.601562 Z M 362.160156 331.023438 C 361.507812 330.9375 360.875 330.742188 360.207031 330.578125 L 360.191406 330.574219 C 360.109375 330.554688 360.019531 330.585938 359.976562 330.652344 C 359.90625 330.75 359.929688 330.882812 360.019531 330.945312 C 360.601562 331.363281 361.25 331.703125 361.945312 331.910156 C 362.632812 332.152344 363.371094 332.238281 364.101562 332.253906 C 364.832031 332.257812 365.5625 332.160156 366.261719 331.941406 C 366.957031 331.722656 367.617188 331.4375 368.210938 330.972656 C 368.285156 330.910156 368.324219 330.808594 368.289062 330.710938 C 368.25 330.578125 368.117188 330.507812 367.984375 330.542969 L 367.960938 330.554688 C 367.339844 330.742188 366.683594 330.910156 366.039062 331.011719 C 365.394531 331.113281 364.746094 331.183594 364.097656 331.175781 C 363.453125 331.183594 362.808594 331.132812 362.160156 331.023438 Z M 352.09375 319.007812 C 352.09375 310.277344 364.566406 296.292969 364.566406 296.292969 C 364.566406 296.292969 377.035156 310.277344 377.035156 319.007812 C 377.035156 327.742188 371.453125 334.824219 364.566406 334.824219 C 357.675781 334.824219 352.09375 327.742188 352.09375 319.007812 Z M 397.03125 287.726562 C 397.875 286.292969 399.1875 285.085938 400.699219 284.332031 L 400.71875 284.320312 C 400.832031 284.265625 400.886719 284.132812 400.839844 284.015625 C 400.792969 283.894531 400.652344 283.824219 400.527344 283.871094 C 398.800781 284.515625 397.304688 285.699219 396.285156 287.261719 C 395.253906 288.839844 394.8125 290.726562 394.964844 292.625 C 395.1875 294.550781 396.121094 296.160156 397.058594 297.683594 C 398.054688 299.179688 399.175781 300.570312 400.460938 301.816406 C 400.53125 301.882812 400.640625 301.894531 400.726562 301.835938 C 400.816406 301.769531 400.839844 301.636719 400.769531 301.546875 L 400.765625 301.542969 C 399.742188 300.121094 398.746094 298.675781 397.886719 297.171875 C 397.015625 295.691406 396.25 294.097656 396 292.503906 C 395.851562 290.894531 396.203125 289.160156 397.03125 287.726562 Z M 402.402344 303.328125 C 402.601562 303.730469 402.855469 304.09375 403.109375 304.445312 C 403.363281 304.800781 403.648438 305.121094 403.941406 305.441406 C 404.238281 305.757812 404.535156 306.066406 404.871094 306.34375 C 405.203125 306.628906 405.539062 306.902344 405.929688 307.128906 C 406 307.171875 406.09375 307.175781 406.171875 307.136719 C 406.296875 307.070312 406.347656 306.921875 406.28125 306.792969 C 406.082031 306.390625 405.824219 306.039062 405.5625 305.691406 C 405.308594 305.339844 405.015625 305.019531 404.722656 304.703125 C 404.414062 304.398438 404.113281 304.089844 403.769531 303.820312 C 403.433594 303.542969 403.09375 303.273438 402.703125 303.046875 C 402.644531 303.011719 402.566406 303.007812 402.5 303.039062 C 402.394531 303.089844 402.347656 303.222656 402.402344 303.328125 Z M 393.601562 286.601562 C 403.015625 270.871094 411.441406 286.601562 411.441406 286.601562 C 411.441406 286.601562 419.875 270.871094 429.28125 286.601562 C 435.117188 296.351562 420.101562 309.515625 413.941406 314.335938 C 412.4375 315.507812 410.449219 315.507812 408.945312 314.335938 C 402.785156 309.515625 387.769531 296.351562 393.601562 286.601562 Z M 450.078125 274.660156 L 455.679688 274.660156 L 455.679688 280.265625 L 462.007812 280.265625 L 462.007812 274.660156 L 467.613281 274.660156 L 467.613281 268.328125 L 462.007812 268.328125 L 462.007812 262.71875 L 455.679688 262.71875 L 455.679688 268.328125 L 450.078125 268.328125 Z M 440.953125 271.492188 C 440.953125 261.664062 448.914062 253.691406 458.738281 253.691406 C 468.558594 253.691406 476.523438 261.664062 476.523438 271.492188 C 476.523438 281.324219 468.558594 289.296875 458.738281 289.296875 C 448.914062 289.296875 440.953125 281.324219 440.953125 271.492188 Z M 486.679688 510.65625 C 486.253906 511.539062 486.632812 512.601562 487.519531 513.027344 C 488.402344 513.445312 489.464844 513.074219 489.886719 512.1875 L 494.335938 502.859375 L 491.132812 501.328125 Z M 426.375 451.003906 L 478.433594 451.003906 L 478.433594 447.769531 L 426.375 447.769531 Z M 418.148438 446.261719 C 416.425781 446.261719 415.027344 447.664062 415.027344 449.386719 C 415.027344 451.109375 416.425781 452.511719 418.148438 452.511719 C 419.871094 452.511719 421.269531 451.109375 421.269531 449.386719 C 421.269531 447.664062 419.871094 446.261719 418.148438 446.261719 Z M 489.828125 449.433594 C 489.828125 447.710938 488.429688 446.308594 486.707031 446.308594 C 484.984375 446.308594 483.582031 447.710938 483.582031 449.433594 C 483.582031 451.15625 484.984375 452.558594 486.707031 452.558594 C 488.429688 452.558594 489.828125 451.15625 489.828125 449.433594 Z M 414.933594 380.710938 C 414.933594 382.433594 416.335938 383.839844 418.054688 383.839844 C 419.777344 383.839844 421.175781 382.433594 421.175781 380.710938 C 421.175781 378.984375 419.777344 377.582031 418.054688 377.582031 C 416.335938 377.582031 414.933594 378.984375 414.933594 380.710938 Z M 486.753906 383.839844 C 488.476562 383.839844 489.875 382.433594 489.875 380.710938 C 489.875 378.984375 488.476562 377.582031 486.753906 377.582031 C 485.03125 377.582031 483.628906 378.984375 483.628906 380.710938 C 483.628906 382.433594 485.03125 383.839844 486.753906 383.839844 Z M 478.355469 397.761719 L 475.074219 382.332031 L 471.03125 382.332031 L 469.625 389.058594 C 473.078125 391.351562 476.046875 394.3125 478.355469 397.761719 Z M 452.40625 383.855469 C 453.0625 383.855469 453.714844 383.878906 454.367188 383.921875 L 454 382.332031 L 433.734375 382.332031 L 431.3125 392.089844 C 436.871094 386.980469 444.277344 383.855469 452.40625 383.855469 Z M 434.53125 379.09375 L 453.257812 379.09375 L 445.464844 345.121094 C 445.296875 344.390625 444.6875 344.125 444.21875 344.121094 C 443.757812 344.148438 443.136719 344.367188 442.957031 345.101562 Z M 455.101562 382.332031 L 455.488281 384.007812 C 460.273438 384.476562 464.746094 386.035156 468.652344 388.433594 L 469.933594 382.332031 Z M 471.710938 379.09375 L 474.390625 379.09375 L 474.316406 378.726562 C 474.15625 377.972656 473.53125 377.703125 473.050781 377.703125 L 473.046875 377.703125 C 472.570312 377.707031 471.945312 377.972656 471.789062 378.730469 Z M 528.347656 389.957031 L 516.375 356.019531 C 516.140625 355.363281 515.570312 355.140625 515.113281 355.160156 C 514.65625 355.175781 514.101562 355.433594 513.914062 356.105469 L 491.382812 437.605469 C 491.085938 438.679688 490.144531 439.398438 489.027344 439.347656 C 488.796875 439.339844 488.578125 439.292969 488.367188 439.226562 L 488.367188 441.152344 L 485.136719 441.152344 L 485.136719 429.707031 L 483.160156 420.386719 C 480.636719 435.101562 467.8125 446.339844 452.40625 446.339844 C 438.875 446.339844 427.328125 437.671875 423.011719 425.59375 L 421.160156 433.058594 C 420.972656 433.832031 420.445312 434.398438 419.765625 434.671875 L 419.765625 441.152344 L 416.53125 441.152344 L 416.53125 432.890625 L 408.386719 387.539062 C 408.269531 386.875 407.761719 386.5625 407.324219 386.492188 C 406.882812 386.425781 406.304688 386.5625 405.984375 387.15625 L 385.425781 425.367188 C 384.972656 426.214844 384.09375 426.691406 383.136719 426.601562 C 382.179688 426.515625 381.394531 425.902344 381.09375 424.988281 L 363.675781 372.464844 C 363.445312 371.765625 362.851562 371.554688 362.367188 371.582031 C 361.890625 371.613281 361.324219 371.90625 361.1875 372.628906 L 350.378906 429.082031 C 350.167969 430.171875 349.285156 430.945312 348.175781 431.003906 C 347.070312 431.058594 346.109375 430.386719 345.789062 429.328125 L 321.722656 350.269531 C 321.523438 349.613281 320.972656 349.367188 320.519531 349.355469 C 320.070312 349.363281 319.507812 349.5625 319.277344 350.210938 L 290.554688 430.511719 C 290.179688 431.554688 289.191406 432.179688 288.085938 432.070312 C 286.984375 431.953125 286.136719 431.140625 285.980469 430.046875 L 267.46875 300.066406 C 267.351562 299.234375 266.703125 298.960938 266.167969 298.957031 C 265.640625 298.96875 264.996094 299.277344 264.910156 300.117188 L 249.414062 449.476562 C 249.289062 450.679688 248.359375 451.554688 247.148438 451.605469 C 245.9375 451.632812 244.945312 450.851562 244.730469 449.65625 L 229.273438 364.714844 C 229.125 363.921875 228.464844 363.667969 227.984375 363.65625 C 227.480469 363.664062 226.847656 363.953125 226.726562 364.753906 L 217.160156 427.429688 C 216.957031 428.753906 215.898438 429.390625 214.9375 429.441406 C 213.976562 429.484375 212.855469 428.953125 212.527344 427.660156 L 187.609375 329.816406 C 187.410156 329.035156 186.757812 328.808594 186.253906 328.847656 C 185.753906 328.890625 185.148438 329.21875 185.070312 330.019531 L 173.6875 456.449219 C 173.554688 457.882812 172.414062 458.570312 171.410156 458.605469 C 171.382812 458.605469 171.355469 458.609375 171.332031 458.609375 C 170.339844 458.609375 169.210938 457.988281 168.992188 456.605469 L 153.738281 359.933594 C 153.617188 359.160156 153 358.863281 152.507812 358.847656 C 152.003906 358.832031 151.378906 359.089844 151.207031 359.859375 L 133.996094 437.089844 C 133.703125 438.402344 132.597656 438.972656 131.625 438.941406 C 130.65625 438.917969 129.578125 438.296875 129.351562 436.972656 L 118.890625 375.109375 C 118.761719 374.335938 118.140625 374.046875 117.648438 374.035156 C 117.164062 374.015625 116.523438 374.285156 116.359375 375.054688 L 108.230469 412.859375 C 108.007812 413.898438 107.179688 414.632812 106.117188 414.722656 C 105.054688 414.8125 104.113281 414.230469 103.71875 413.242188 L 94 388.933594 C 94.140625 388.316406 94.273438 387.691406 94.417969 387.070312 L 104.722656 412.839844 C 104.980469 413.496094 105.5625 413.6875 106.023438 413.644531 C 106.484375 413.609375 107.03125 413.320312 107.179688 412.628906 L 115.308594 374.828125 C 115.589844 373.507812 116.699219 372.941406 117.671875 372.957031 C 118.644531 372.980469 119.730469 373.597656 119.953125 374.929688 L 130.417969 436.789062 C 130.546875 437.566406 131.164062 437.851562 131.652344 437.863281 C 132.144531 437.867188 132.777344 437.621094 132.945312 436.851562 L 150.152344 359.625 C 150.449219 358.300781 151.582031 357.742188 152.539062 357.769531 C 153.515625 357.800781 154.59375 358.433594 154.804688 359.765625 L 170.054688 456.4375 C 170.1875 457.269531 170.851562 457.546875 171.371094 457.527344 C 171.898438 457.507812 172.539062 457.191406 172.613281 456.351562 L 184 329.921875 C 184.125 328.546875 185.179688 327.851562 186.171875 327.773438 C 187.15625 327.6875 188.3125 328.210938 188.652344 329.550781 L 213.570312 427.394531 C 213.761719 428.148438 214.394531 428.382812 214.882812 428.363281 C 215.371094 428.335938 215.976562 428.039062 216.09375 427.265625 L 225.664062 364.589844 C 225.871094 363.222656 226.972656 362.59375 227.96875 362.578125 C 228.957031 362.59375 230.085938 363.15625 230.328125 364.523438 L 245.785156 449.464844 C 245.9375 450.277344 246.589844 450.535156 247.109375 450.523438 C 247.621094 450.503906 248.257812 450.1875 248.339844 449.367188 L 263.835938 300.003906 C 263.984375 298.570312 265.136719 297.898438 266.148438 297.882812 C 267.15625 297.863281 268.332031 298.488281 268.535156 299.914062 L 287.046875 429.894531 C 287.152344 430.632812 287.710938 430.949219 288.195312 430.996094 C 288.679688 431.050781 289.289062 430.851562 289.539062 430.148438 L 318.261719 349.847656 C 318.609375 348.867188 319.507812 348.25 320.546875 348.277344 C 321.585938 348.300781 322.453125 348.960938 322.753906 349.957031 L 346.816406 429.015625 C 347.03125 429.726562 347.628906 429.941406 348.117188 429.929688 C 348.605469 429.902344 349.179688 429.613281 349.316406 428.878906 L 360.128906 372.421875 C 360.335938 371.351562 361.207031 370.578125 362.296875 370.507812 C 363.390625 370.425781 364.355469 371.085938 364.699219 372.125 L 382.121094 424.652344 C 382.285156 425.152344 382.699219 425.480469 383.230469 425.527344 C 383.761719 425.570312 384.226562 425.324219 384.480469 424.855469 L 405.035156 386.644531 C 405.515625 385.746094 406.480469 385.269531 407.492188 385.429688 C 408.5 385.589844 409.265625 386.34375 409.445312 387.351562 L 416.53125 426.796875 L 416.53125 389.039062 L 419.765625 389.039062 L 419.765625 433.402344 C 419.914062 433.253906 420.050781 433.066406 420.117188 432.796875 L 422.390625 423.632812 C 421.617188 420.917969 421.195312 418.054688 421.195312 415.09375 C 421.195312 406.742188 424.492188 399.152344 429.84375 393.542969 L 432.621094 382.332031 L 426.375 382.332031 L 426.375 379.09375 L 433.421875 379.09375 L 441.910156 344.839844 C 442.175781 343.753906 443.144531 343.03125 444.226562 343.042969 C 445.347656 343.050781 446.261719 343.792969 446.515625 344.882812 L 454.363281 379.09375 L 470.613281 379.09375 L 470.734375 378.511719 C 471.007812 377.207031 472.09375 376.628906 473.046875 376.625 C 473.046875 376.625 473.046875 376.625 473.050781 376.625 C 474.007812 376.625 475.09375 377.203125 475.367188 378.5 L 475.492188 379.09375 L 478.433594 379.09375 L 478.433594 382.332031 L 476.179688 382.332031 L 480.074219 400.667969 C 482.328125 404.984375 483.613281 409.894531 483.613281 415.09375 C 483.613281 415.746094 483.589844 416.390625 483.550781 417.035156 L 485.136719 424.519531 L 485.136719 389.039062 L 488.367188 389.039062 L 488.367188 438.046875 C 488.585938 438.1875 488.832031 438.261719 489.0625 438.269531 C 489.558594 438.296875 490.148438 438.042969 490.34375 437.320312 L 512.875 355.816406 C 513.160156 354.800781 514.019531 354.117188 515.078125 354.082031 C 516.132812 354.035156 517.039062 354.667969 517.390625 355.660156 L 527.683594 384.835938 C 527.933594 386.535156 528.160156 388.238281 528.347656 389.957031 Z M 547.289062 401.917969 L 537.683594 422.054688 C 536.679688 424.167969 534.515625 425.527344 532.175781 425.527344 C 531.261719 425.527344 530.378906 425.328125 529.550781 424.933594 C 528.078125 424.230469 526.972656 422.996094 526.429688 421.457031 C 525.882812 419.917969 525.96875 418.261719 526.671875 416.789062 L 536.28125 396.65625 C 537.289062 394.539062 539.453125 393.179688 541.789062 393.179688 C 542.703125 393.179688 543.585938 393.378906 544.417969 393.773438 C 547.449219 395.226562 548.742188 398.878906 547.289062 401.917969 " fill-opacity="1" fill-rule="nonzero"/><g clip-path="url(#id2)"><path fill="#5ec9cc" d="M 357.476562 241.03125 C 353.953125 241.558594 343.980469 244.660156 343.980469 244.660156 C 343.980469 244.660156 353.90625 238.402344 356.535156 235.441406 C 359.164062 232.480469 369.867188 228.101562 369.214844 225.246094 C 368.5625 222.386719 362.429688 223.746094 357.203125 227.023438 C 351.980469 230.296875 339.375 233.519531 339.375 233.519531 C 339.375 233.519531 339.261719 231.695312 345.496094 227.941406 C 351.734375 224.191406 361.691406 219.816406 359.160156 216.980469 C 355.652344 213.054688 331.011719 227.894531 331.011719 227.894531 C 331.011719 227.894531 342.890625 212.035156 337.429688 212.003906 C 331.972656 211.976562 329.5 219.855469 324.910156 223.34375 C 320.320312 226.832031 310.902344 239.027344 310.902344 239.027344 L 273.5625 251.765625 L 289.15625 282.453125 C 289.15625 282.453125 325.949219 258.105469 328.554688 258.785156 C 331.15625 259.46875 342.90625 262.828125 346.246094 261.941406 C 349.585938 261.046875 357.484375 260.523438 358.785156 259.359375 C 360.085938 258.191406 356.757812 255.371094 353.078125 254.839844 C 347.921875 254.101562 341.679688 254.636719 342.25 253.332031 C 342.816406 252.03125 354.15625 248.121094 358.535156 246.261719 C 362.917969 244.402344 370.8125 241.269531 369.804688 239.339844 C 368.214844 236.316406 360.996094 240.507812 357.476562 241.03125 Z M 543.953125 394.746094 C 541.445312 393.550781 538.449219 394.613281 537.253906 397.117188 L 527.644531 417.253906 C 526.449219 419.761719 527.511719 422.765625 530.015625 423.960938 C 532.515625 425.15625 535.515625 424.09375 536.710938 421.589844 L 546.316406 401.453125 C 547.511719 398.949219 546.457031 395.949219 543.953125 394.746094 Z M 550.429688 406.542969 L 521.894531 450.445312 L 514.539062 446.929688 L 530.710938 397.117188 C 532.773438 390.78125 539.933594 387.699219 545.945312 390.574219 C 551.953125 393.445312 554.058594 400.957031 550.429688 406.542969 Z M 437.304688 614.183594 C 443.09375 614.183594 447.789062 608.738281 447.789062 602.019531 C 447.789062 596.613281 444.75 586.808594 440.535156 583.195312 L 440.535156 574.195312 C 440.535156 572.410156 439.089844 570.960938 437.304688 570.960938 C 435.519531 570.960938 434.074219 572.410156 434.074219 574.195312 L 434.074219 583.195312 C 429.867188 586.808594 426.820312 596.613281 426.820312 602.019531 C 426.820312 608.738281 431.515625 614.183594 437.304688 614.183594 Z M 387.128906 701.144531 L 491.582031 701.144531 L 491.582031 627.910156 L 387.128906 627.910156 Z M 147.164062 439.371094 C 154.730469 432.492188 161.269531 426.554688 159.140625 419.984375 C 157.667969 415.441406 151.984375 409.5 141.753906 401.835938 C 139.71875 400.308594 138.671875 397.964844 138.882812 395.414062 C 139.09375 392.875 140.5625 390.660156 142.820312 389.496094 C 147.410156 387.109375 150.257812 382.417969 150.257812 377.242188 L 150.257812 341.011719 C 152.824219 340.675781 155.375 340.113281 157.878906 339.308594 C 162.039062 337.96875 165.785156 335.796875 169.007812 332.847656 C 170.324219 331.644531 170.417969 329.597656 169.214844 328.277344 C 168.011719 326.960938 165.964844 326.867188 164.648438 328.074219 C 162.117188 330.390625 159.171875 332.097656 155.902344 333.148438 C 148.589844 335.503906 140.855469 335.503906 133.539062 333.148438 C 130.398438 332.136719 127.554688 330.519531 125.085938 328.332031 C 123.746094 327.148438 121.707031 327.277344 120.523438 328.617188 C 119.34375 329.949219 119.46875 331.996094 120.804688 333.179688 C 123.945312 335.960938 127.566406 338.023438 131.566406 339.308594 C 135.570312 340.59375 139.679688 341.269531 143.796875 341.359375 L 143.796875 377.242188 C 143.796875 379.992188 142.28125 382.484375 139.84375 383.75 C 135.605469 385.949219 132.835938 390.109375 132.441406 394.882812 C 132.050781 399.628906 134.082031 404.160156 137.878906 407.011719 C 150.117188 416.191406 152.527344 420.535156 152.992188 421.980469 C 153.835938 424.574219 147.726562 430.121094 142.816406 434.582031 C 137.226562 439.660156 131.082031 445.257812 127.441406 451.75 C 123.855469 452.050781 121.039062 455.054688 121.039062 458.722656 C 121.039062 462.589844 124.171875 465.726562 128.035156 465.726562 C 131.898438 465.726562 135.027344 462.589844 135.027344 458.722656 C 135.027344 457.035156 134.433594 455.492188 133.441406 454.28125 C 136.644531 448.933594 142.15625 443.921875 147.164062 439.371094 Z M 158.09375 241.308594 L 167.832031 240.625 C 169.339844 240.519531 170.511719 239.265625 170.511719 237.757812 L 170.511719 235.910156 C 170.511719 234.398438 169.339844 233.144531 167.832031 233.039062 L 158.09375 232.359375 C 156.429688 232.242188 155.019531 233.5625 155.019531 235.230469 L 155.019531 238.433594 C 155.019531 240.101562 156.429688 241.421875 158.09375 241.308594 Z M 121.609375 240.625 L 131.351562 241.308594 C 133.007812 241.421875 134.417969 240.109375 134.421875 238.453125 L 134.464844 238.453125 L 134.464844 235.214844 L 134.421875 235.214844 C 134.414062 233.554688 133.007812 232.242188 131.351562 232.359375 L 121.609375 233.039062 C 120.105469 233.144531 118.933594 234.398438 118.933594 235.910156 L 118.933594 237.757812 C 118.933594 238.347656 119.113281 238.890625 119.421875 239.347656 C 119.902344 240.0625 120.6875 240.5625 121.609375 240.625 Z M 261.8125 285.464844 L 259.976562 284.808594 C 256.140625 283.445312 251.90625 283.597656 248.222656 285.339844 C 243.785156 287.4375 240.074219 290.289062 237.167969 293.042969 C 232.320312 297.636719 231.066406 304.886719 233.914062 310.929688 C 243.421875 296.964844 261.8125 285.464844 261.8125 285.464844 Z M 318.933594 578.164062 C 315.84375 591.78125 315.558594 606.332031 315.558594 606.332031 L 324.914062 661.078125 C 324.914062 661.078125 273.46875 658.230469 200.835938 615.996094 C 200.835938 615.996094 201.386719 611.554688 206.734375 605.308594 C 209.636719 582.007812 210.054688 561.566406 209.703125 546.554688 L 200.835938 559.199219 L 144.722656 529.375 L 196.484375 435.523438 C 197.171875 434.0625 197.960938 432.644531 198.824219 431.277344 C 204.882812 421.703125 215.035156 414.566406 227.464844 412.46875 C 237.394531 410.792969 246.851562 409.898438 253.921875 410.449219 C 284.390625 412.839844 307.734375 415.894531 315.960938 419.867188 C 319.785156 421.710938 323.941406 426.527344 327.753906 433.097656 L 327.753906 433.089844 L 327.808594 433.191406 C 328.507812 434.394531 329.183594 435.65625 329.851562 436.96875 L 368.875 509.128906 L 331.644531 528.339844 C 327.273438 545.035156 322.296875 563.355469 318.933594 578.164062 " fill-opacity="1" fill-rule="nonzero"/></g><path fill="#f9d291" d="M 276.28125 473.699219 C 275.019531 472.4375 272.066406 471.269531 270.484375 474.78125 L 266.023438 474.050781 L 250.136719 481.179688 C 249.394531 481.496094 248.761719 482.03125 248.332031 482.71875 L 237.796875 499.371094 L 171.011719 542.808594 C 170.859375 542.910156 170.730469 543.023438 170.585938 543.125 L 160.804688 537.921875 L 157.40625 544.855469 C 152.222656 555.449219 156.234375 568.253906 166.53125 573.984375 C 168.769531 575.230469 171.140625 576.027344 173.542969 576.441406 C 180.613281 579.644531 189.242188 578.371094 195.078125 572.511719 L 246.429688 520.949219 L 254.550781 516.910156 C 260.257812 514.070312 263.933594 508.320312 264.125 501.949219 L 267.351562 504.316406 C 269.078125 505.582031 271.542969 504.898438 272.371094 502.917969 C 272.371094 502.917969 277.054688 502.597656 273.910156 497.128906 L 273.03125 495.257812 L 275.582031 496.824219 C 276.773438 497.554688 278.285156 496.566406 278.097656 495.175781 L 277.054688 487.59375 C 278.144531 487.480469 279.238281 486.960938 279.007812 485.265625 C 278.582031 482.035156 277.574219 474.992188 276.28125 473.699219 Z M 395.289062 498.582031 C 396.335938 495.78125 395.589844 487.472656 395.589844 487.472656 L 390.023438 495.511719 C 390.023438 495.511719 367.429688 501.265625 365.332031 503.367188 C 363.230469 505.464844 362.53125 508.503906 362.53125 508.503906 C 362.53125 508.503906 352.507812 512.703125 352.507812 515.734375 C 352.507812 518.769531 353.671875 519.9375 355.539062 519.9375 C 357.402344 519.9375 359.035156 519.9375 359.035156 519.9375 C 359.035156 519.9375 357.171875 523.597656 358.804688 525.152344 C 359.855469 526.15625 358.585938 527.675781 359.058594 528.941406 L 328.898438 563.890625 C 322.246094 571.59375 324.15625 583.441406 332.886719 588.660156 C 340.847656 593.417969 351.164062 590.613281 355.625 582.476562 L 391.671875 516.714844 L 391.347656 516.554688 C 392.09375 516.074219 392.839844 515.558594 393.1875 514.800781 C 394.003906 513.050781 394.238281 509.082031 395.289062 507.683594 C 396.335938 506.28125 394.238281 501.382812 395.289062 498.582031 Z M 322.742188 374.636719 C 320.867188 381.078125 310.625 402.863281 299.496094 404.46875 C 296.507812 404.902344 293.53125 404.769531 290.601562 404.210938 L 291.003906 413.460938 L 297.515625 416.441406 L 278.816406 461 L 245.570312 411.582031 L 253.183594 409.699219 C 255.039062 399.601562 255.648438 389.328125 255.007812 379.09375 C 253.988281 377.921875 253.050781 376.808594 252.207031 375.792969 C 250.878906 374.1875 249.476562 372.191406 248.015625 369.769531 C 243.207031 364.609375 237.96875 355.4375 238.382812 348.941406 C 237.855469 347.539062 237.324219 346.105469 236.785156 344.589844 C 228.71875 321.792969 242.429688 296.8125 266.09375 291.941406 C 288.09375 287.417969 312.328125 296.726562 319.121094 301.785156 C 331.457031 310.976562 324.613281 368.195312 322.742188 374.636719 " fill-opacity="1" fill-rule="nonzero"/><g clip-path="url(#id3)"><path fill="#30526a" d="M 358.535156 246.261719 C 354.15625 248.121094 342.816406 252.03125 342.25 253.332031 C 341.71875 254.550781 347.101562 254.164062 352.007812 254.710938 C 351.953125 254.660156 351.925781 254.625 351.925781 254.625 C 351.925781 254.625 363.804688 249.3125 369.925781 248.628906 C 376.050781 247.941406 381.703125 245.195312 380.441406 242.550781 C 379.398438 240.363281 371.660156 242.179688 366.796875 242.5 C 364.332031 243.863281 360.917969 245.253906 358.535156 246.261719 Z M 346.910156 271.59375 C 352.671875 271.472656 359.5 276.109375 363.757812 272.691406 C 368.019531 269.269531 348.863281 264.238281 348.863281 264.238281 C 348.863281 264.238281 377.386719 260.535156 377.691406 255.277344 C 377.914062 251.480469 367.402344 254.25 360.183594 255.1875 C 358.121094 255.453125 356.570312 255.523438 355.398438 255.480469 C 357.988281 256.53125 359.796875 258.449219 358.785156 259.359375 C 357.484375 260.523438 349.585938 261.046875 346.246094 261.941406 C 342.90625 262.828125 331.15625 259.46875 328.554688 258.785156 C 326.484375 258.246094 302.902344 273.457031 293.253906 279.765625 L 326.195312 268.019531 C 326.195312 268.019531 341.144531 271.722656 346.910156 271.59375 Z M 349.425781 229.394531 C 350.886719 227.851562 351.789062 225.789062 351.96875 224.289062 C 349.78125 225.523438 347.453125 226.761719 345.496094 227.941406 C 339.261719 231.695312 339.375 233.519531 339.375 233.519531 C 339.375 233.519531 343.359375 232.5 347.777344 231.027344 C 348.34375 230.496094 348.90625 229.953125 349.425781 229.394531 Z M 287.371094 247.054688 C 284.210938 247.347656 282.207031 247.523438 282.207031 247.523438 L 282.453125 248.734375 Z M 349.917969 242.898438 C 349.109375 242.980469 348.617188 243.03125 348.617188 243.03125 C 348.617188 243.03125 358.355469 239.261719 361.445312 237.484375 C 364.527344 235.703125 372.785156 234.5 372.152344 231.140625 C 371.800781 229.289062 365.6875 230.871094 361.074219 232.15625 C 359.144531 233.328125 357.398438 234.460938 356.535156 235.441406 C 353.90625 238.402344 343.980469 244.660156 343.980469 244.660156 C 343.980469 244.660156 346.773438 243.792969 349.917969 242.898438 Z M 514.539062 446.929688 L 491.132812 501.328125 L 494.335938 502.859375 L 521.894531 450.445312 Z M 486.707031 626.292969 C 485.8125 626.292969 485.089844 627.015625 485.089844 627.910156 L 485.089844 701.144531 C 485.089844 702.035156 485.8125 702.761719 486.707031 702.761719 C 487.597656 702.761719 488.320312 702.035156 488.320312 701.144531 L 488.320312 627.910156 C 488.320312 627.015625 487.597656 626.292969 486.707031 626.292969 Z M 405.867188 626.292969 C 404.96875 626.292969 404.25 627.015625 404.25 627.910156 L 404.25 701.144531 C 404.25 702.035156 404.96875 702.761719 405.867188 702.761719 C 406.757812 702.761719 407.480469 702.035156 407.480469 701.144531 L 407.480469 627.910156 C 407.480469 627.015625 406.757812 626.292969 405.867188 626.292969 Z M 477.355469 449.925781 L 477.355469 448.847656 L 427.449219 448.847656 L 427.449219 449.925781 Z M 428.921875 428.632812 L 426.265625 430.09375 C 427.445312 432.152344 428.863281 434.0625 430.484375 435.78125 L 432.671875 433.683594 L 433.042969 434.070312 L 430.855469 436.171875 C 432.789062 438.15625 435.003906 439.875 437.421875 441.261719 L 438.882812 438.601562 L 439.828125 439.125 L 438.367188 441.785156 C 440.4375 442.878906 442.648438 443.746094 444.972656 444.332031 L 445.695312 441.371094 L 446.222656 441.5 L 445.496094 444.457031 C 447.546875 444.9375 449.675781 445.210938 451.867188 445.246094 L 451.867188 442.214844 L 452.945312 442.214844 L 452.945312 445.246094 C 455.359375 445.207031 457.710938 444.886719 459.957031 444.304688 L 459.167969 441.359375 L 459.6875 441.21875 L 460.476562 444.15625 C 462.566406 443.574219 464.5625 442.78125 466.441406 441.785156 L 464.980469 439.125 L 465.925781 438.601562 L 467.386719 441.261719 C 469.445312 440.078125 471.351562 438.660156 473.070312 437.039062 L 470.96875 434.847656 L 471.355469 434.472656 L 473.457031 436.667969 C 475.441406 434.726562 477.15625 432.515625 478.546875 430.09375 L 475.886719 428.632812 L 476.40625 427.683594 L 479.066406 429.148438 C 480.160156 427.078125 481.019531 424.863281 481.609375 422.539062 L 478.652344 421.808594 L 478.78125 421.285156 L 481.734375 422.011719 C 482.210938 419.960938 482.484375 417.824219 482.523438 415.632812 L 479.492188 415.632812 L 479.492188 414.554688 L 482.523438 414.554688 C 482.480469 412.136719 482.160156 409.785156 481.582031 407.535156 L 478.640625 408.320312 L 478.5 407.804688 L 481.433594 407.015625 C 480.851562 404.921875 480.058594 402.921875 479.066406 401.042969 L 476.40625 402.503906 L 475.886719 401.5625 L 478.546875 400.101562 C 477.359375 398.035156 475.941406 396.128906 474.328125 394.410156 L 472.140625 396.511719 L 471.765625 396.125 L 473.953125 394.023438 C 472.015625 392.035156 469.808594 390.320312 467.386719 388.929688 L 465.925781 391.589844 L 464.980469 391.070312 L 466.441406 388.402344 C 464.371094 387.3125 462.160156 386.449219 459.835938 385.859375 L 459.113281 388.820312 L 458.585938 388.691406 L 459.3125 385.738281 C 457.261719 385.253906 455.132812 384.984375 452.945312 384.945312 L 452.945312 387.972656 L 451.867188 387.972656 L 451.867188 384.945312 C 449.449219 384.988281 447.097656 385.308594 444.847656 385.890625 L 445.640625 388.832031 L 445.117188 388.976562 L 444.332031 386.035156 C 442.246094 386.613281 440.246094 387.414062 438.367188 388.402344 L 439.828125 391.070312 L 438.882812 391.589844 L 437.421875 388.929688 C 434.675781 390.503906 432.195312 392.503906 430.082031 394.832031 L 432.351562 396.855469 L 431.996094 397.261719 L 429.730469 395.238281 C 428.421875 396.734375 427.257812 398.363281 426.265625 400.101562 L 428.921875 401.5625 L 428.402344 402.503906 L 425.742188 401.042969 C 424.648438 403.117188 423.785156 405.332031 423.199219 407.65625 L 426.15625 408.382812 L 426.023438 408.902344 L 423.074219 408.183594 C 422.59375 410.234375 422.320312 412.367188 422.285156 414.554688 L 425.3125 414.554688 L 425.3125 415.632812 L 422.285156 415.632812 C 422.328125 418.054688 422.644531 420.410156 423.226562 422.660156 L 426.167969 421.867188 L 426.3125 422.390625 L 423.375 423.175781 C 423.953125 425.265625 424.75 427.265625 425.742188 429.148438 L 428.402344 427.683594 Z M 420.191406 449.386719 C 420.191406 448.257812 419.277344 447.339844 418.148438 447.339844 C 417.015625 447.339844 416.101562 448.257812 416.101562 449.386719 C 416.101562 450.515625 417.015625 451.433594 418.148438 451.433594 C 419.277344 451.433594 420.191406 450.515625 420.191406 449.386719 Z M 417.609375 390.117188 L 417.609375 440.074219 L 418.6875 440.074219 L 418.6875 390.117188 Z M 416.011719 380.710938 C 416.011719 381.839844 416.925781 382.761719 418.054688 382.761719 C 419.183594 382.761719 420.101562 381.839844 420.101562 380.710938 C 420.101562 379.578125 419.183594 378.660156 418.054688 378.660156 C 416.925781 378.660156 416.011719 379.578125 416.011719 380.710938 Z M 427.449219 381.253906 L 477.355469 381.253906 L 477.355469 380.171875 L 427.449219 380.171875 Z M 484.660156 449.433594 C 484.660156 450.5625 485.578125 451.480469 486.707031 451.480469 C 487.835938 451.480469 488.75 450.5625 488.75 449.433594 C 488.75 448.304688 487.835938 447.386719 486.707031 447.386719 C 485.578125 447.386719 484.660156 448.304688 484.660156 449.433594 Z M 486.214844 390.117188 L 486.214844 440.074219 L 487.289062 440.074219 L 487.289062 390.117188 Z M 484.707031 380.710938 C 484.707031 381.839844 485.625 382.761719 486.753906 382.761719 C 487.882812 382.761719 488.796875 381.839844 488.796875 380.710938 C 488.796875 379.578125 487.882812 378.660156 486.753906 378.660156 C 485.625 378.660156 484.707031 379.578125 484.707031 380.710938 Z M 474.089844 466.367188 L 463.136719 467.34375 L 474.625 472.65625 C 475.289062 472.960938 475.664062 473.679688 475.539062 474.402344 C 475.417969 475.121094 474.820312 475.671875 474.089844 475.738281 L 463.136719 476.710938 L 474.625 482.023438 C 475.289062 482.328125 475.664062 483.046875 475.539062 483.769531 C 475.417969 484.488281 474.820312 485.039062 474.089844 485.101562 L 463.136719 486.078125 L 474.625 491.390625 C 475.289062 491.695312 475.664062 492.414062 475.539062 493.136719 C 475.417969 493.859375 474.820312 494.40625 474.089844 494.472656 L 463.136719 495.445312 L 474.625 500.761719 C 475.289062 501.066406 475.664062 501.78125 475.539062 502.503906 C 475.417969 503.230469 474.820312 503.773438 474.089844 503.839844 L 463.136719 504.8125 L 474.625 510.128906 C 475.289062 510.4375 475.664062 511.152344 475.539062 511.871094 C 475.417969 512.59375 474.820312 513.140625 474.089844 513.207031 L 463.136719 514.179688 L 474.625 519.496094 C 475.289062 519.804688 475.664062 520.519531 475.539062 521.238281 C 475.417969 521.964844 474.820312 522.511719 474.089844 522.574219 L 463.136719 523.550781 L 474.625 528.863281 C 475.289062 529.171875 475.664062 529.886719 475.539062 530.605469 C 475.417969 531.332031 474.820312 531.875 474.089844 531.941406 L 463.136719 532.917969 L 474.625 538.230469 C 475.289062 538.539062 475.664062 539.253906 475.539062 539.972656 C 475.417969 540.699219 474.820312 541.246094 474.089844 541.308594 L 463.136719 542.285156 L 468.070312 544.570312 C 468.660156 544.839844 469.003906 545.425781 469.003906 546.035156 L 469.007812 546.035156 L 469.007812 627.910156 L 465.777344 627.910156 L 465.777344 547.070312 L 456.28125 542.683594 C 455.617188 542.375 455.238281 541.660156 455.363281 540.933594 C 455.488281 540.214844 456.082031 539.667969 456.8125 539.597656 L 467.773438 538.625 L 456.28125 533.308594 C 456.136719 533.246094 456.015625 533.160156 455.902344 533.0625 C 455.886719 533.046875 455.863281 533.027344 455.84375 533.007812 C 455.722656 532.890625 455.617188 532.75 455.535156 532.601562 C 455.523438 532.578125 455.511719 532.550781 455.503906 532.53125 C 455.425781 532.367188 455.375 532.195312 455.355469 532.015625 C 455.355469 532.003906 455.347656 531.996094 455.347656 531.988281 C 455.347656 531.957031 455.351562 531.929688 455.347656 531.898438 C 455.347656 531.839844 455.347656 531.78125 455.351562 531.722656 C 455.355469 531.671875 455.363281 531.621094 455.371094 531.566406 C 455.378906 531.515625 455.390625 531.464844 455.402344 531.414062 C 455.417969 531.359375 455.441406 531.304688 455.460938 531.246094 C 455.472656 531.222656 455.476562 531.191406 455.488281 531.167969 C 455.5 531.148438 455.507812 531.136719 455.519531 531.121094 C 455.542969 531.066406 455.574219 531.015625 455.609375 530.96875 C 455.632812 530.925781 455.660156 530.882812 455.6875 530.847656 C 455.722656 530.804688 455.757812 530.765625 455.796875 530.730469 C 455.832031 530.691406 455.863281 530.652344 455.90625 530.617188 C 455.945312 530.585938 455.992188 530.554688 456.03125 530.527344 C 456.074219 530.496094 456.113281 530.46875 456.160156 530.441406 C 456.207031 530.417969 456.25 530.390625 456.300781 530.371094 C 456.347656 530.347656 456.394531 530.328125 456.445312 530.316406 C 456.492188 530.300781 456.542969 530.285156 456.589844 530.273438 C 456.648438 530.261719 456.703125 530.25 456.761719 530.246094 C 456.777344 530.238281 456.792969 530.234375 456.8125 530.230469 L 467.773438 529.257812 L 456.28125 523.941406 C 456.136719 523.878906 456.015625 523.792969 455.902344 523.695312 C 455.886719 523.679688 455.863281 523.660156 455.84375 523.640625 C 455.722656 523.523438 455.617188 523.382812 455.535156 523.234375 C 455.523438 523.210938 455.511719 523.1875 455.503906 523.164062 C 455.425781 523 455.375 522.832031 455.355469 522.648438 C 455.355469 522.640625 455.347656 522.632812 455.347656 522.621094 C 455.347656 522.589844 455.351562 522.5625 455.347656 522.527344 C 455.347656 522.472656 455.347656 522.414062 455.351562 522.355469 C 455.355469 522.300781 455.363281 522.25 455.371094 522.199219 C 455.378906 522.148438 455.390625 522.097656 455.402344 522.046875 C 455.417969 521.992188 455.441406 521.9375 455.460938 521.882812 C 455.472656 521.855469 455.476562 521.824219 455.488281 521.800781 C 455.5 521.78125 455.507812 521.765625 455.519531 521.753906 C 455.542969 521.699219 455.574219 521.652344 455.609375 521.601562 C 455.632812 521.558594 455.660156 521.515625 455.6875 521.480469 C 455.722656 521.4375 455.757812 521.398438 455.796875 521.359375 C 455.832031 521.324219 455.863281 521.285156 455.90625 521.25 C 455.945312 521.21875 455.988281 521.1875 456.027344 521.160156 C 456.070312 521.128906 456.113281 521.101562 456.160156 521.074219 C 456.207031 521.050781 456.25 521.027344 456.300781 521.003906 C 456.347656 520.988281 456.394531 520.960938 456.445312 520.945312 C 456.492188 520.933594 456.539062 520.917969 456.589844 520.90625 C 456.648438 520.894531 456.703125 520.886719 456.761719 520.878906 C 456.777344 520.871094 456.792969 520.867188 456.8125 520.863281 L 467.773438 519.886719 L 456.28125 514.574219 C 456.136719 514.511719 456.015625 514.425781 455.902344 514.328125 C 455.886719 514.304688 455.863281 514.292969 455.84375 514.273438 C 455.722656 514.15625 455.617188 514.015625 455.535156 513.867188 C 455.523438 513.84375 455.511719 513.816406 455.503906 513.792969 C 455.425781 513.632812 455.375 513.460938 455.355469 513.28125 C 455.355469 513.269531 455.347656 513.261719 455.347656 513.253906 C 455.347656 513.21875 455.351562 513.191406 455.347656 513.160156 C 455.347656 513.101562 455.347656 513.046875 455.351562 512.988281 C 455.355469 512.933594 455.363281 512.882812 455.371094 512.832031 C 455.378906 512.78125 455.390625 512.730469 455.402344 512.679688 C 455.417969 512.621094 455.441406 512.570312 455.460938 512.511719 C 455.472656 512.488281 455.476562 512.457031 455.488281 512.433594 C 455.5 512.414062 455.507812 512.398438 455.519531 512.382812 C 455.542969 512.332031 455.574219 512.28125 455.609375 512.234375 C 455.632812 512.191406 455.660156 512.148438 455.6875 512.113281 C 455.722656 512.070312 455.757812 512.03125 455.796875 511.992188 C 455.832031 511.957031 455.863281 511.917969 455.90625 511.882812 C 455.945312 511.851562 455.992188 511.820312 456.03125 511.792969 C 456.074219 511.761719 456.113281 511.734375 456.160156 511.707031 C 456.207031 511.679688 456.25 511.65625 456.300781 511.636719 C 456.347656 511.613281 456.394531 511.59375 456.445312 511.582031 C 456.492188 511.5625 456.542969 511.550781 456.589844 511.539062 C 456.648438 511.527344 456.703125 511.515625 456.761719 511.507812 C 456.777344 511.503906 456.792969 511.5 456.8125 511.496094 L 467.773438 510.519531 L 456.28125 505.207031 C 456.136719 505.144531 456.015625 505.058594 455.902344 504.960938 C 455.886719 504.9375 455.863281 504.921875 455.84375 504.90625 C 455.722656 504.785156 455.617188 504.648438 455.535156 504.5 C 455.523438 504.476562 455.511719 504.449219 455.503906 504.425781 C 455.425781 504.265625 455.375 504.09375 455.355469 503.914062 C 455.355469 503.902344 455.347656 503.894531 455.347656 503.882812 C 455.347656 503.851562 455.351562 503.824219 455.347656 503.792969 C 455.347656 503.734375 455.347656 503.679688 455.351562 503.621094 C 455.355469 503.566406 455.363281 503.515625 455.371094 503.464844 C 455.378906 503.414062 455.390625 503.363281 455.402344 503.3125 C 455.417969 503.253906 455.441406 503.199219 455.460938 503.144531 C 455.472656 503.121094 455.476562 503.089844 455.488281 503.066406 C 455.5 503.046875 455.507812 503.03125 455.519531 503.015625 C 455.542969 502.964844 455.574219 502.914062 455.609375 502.867188 C 455.632812 502.824219 455.660156 502.78125 455.6875 502.746094 C 455.722656 502.703125 455.757812 502.664062 455.796875 502.625 C 455.832031 502.589844 455.863281 502.550781 455.90625 502.515625 C 455.945312 502.484375 455.988281 502.453125 456.03125 502.425781 C 456.074219 502.394531 456.113281 502.363281 456.160156 502.339844 C 456.207031 502.3125 456.25 502.289062 456.300781 502.269531 C 456.347656 502.246094 456.394531 502.226562 456.445312 502.210938 C 456.492188 502.195312 456.542969 502.183594 456.589844 502.171875 C 456.648438 502.160156 456.703125 502.148438 456.761719 502.136719 C 456.777344 502.136719 456.792969 502.128906 456.8125 502.128906 L 467.773438 501.152344 L 456.28125 495.839844 C 456.136719 495.777344 456.015625 495.691406 455.902344 495.59375 C 455.886719 495.570312 455.863281 495.554688 455.84375 495.539062 C 455.722656 495.414062 455.617188 495.28125 455.535156 495.132812 C 455.523438 495.109375 455.511719 495.082031 455.503906 495.058594 C 455.425781 494.898438 455.375 494.726562 455.355469 494.546875 C 455.355469 494.535156 455.347656 494.527344 455.347656 494.519531 C 455.347656 494.484375 455.351562 494.457031 455.347656 494.425781 C 455.347656 494.367188 455.347656 494.3125 455.351562 494.253906 C 455.355469 494.199219 455.363281 494.148438 455.371094 494.097656 C 455.378906 494.046875 455.390625 493.996094 455.402344 493.945312 C 455.417969 493.886719 455.441406 493.832031 455.460938 493.777344 C 455.472656 493.753906 455.476562 493.722656 455.488281 493.691406 C 455.5 493.679688 455.507812 493.664062 455.519531 493.648438 C 455.542969 493.597656 455.574219 493.546875 455.609375 493.5 C 455.632812 493.457031 455.660156 493.414062 455.6875 493.378906 C 455.722656 493.335938 455.757812 493.296875 455.796875 493.257812 C 455.832031 493.222656 455.863281 493.183594 455.90625 493.148438 C 455.945312 493.117188 455.992188 493.085938 456.03125 493.054688 C 456.074219 493.027344 456.113281 493 456.160156 492.972656 C 456.207031 492.945312 456.25 492.921875 456.300781 492.902344 C 456.347656 492.878906 456.394531 492.859375 456.445312 492.84375 C 456.492188 492.828125 456.542969 492.816406 456.589844 492.804688 C 456.648438 492.792969 456.703125 492.777344 456.761719 492.769531 C 456.777344 492.769531 456.792969 492.761719 456.8125 492.761719 L 467.773438 491.785156 L 456.28125 486.472656 C 456.136719 486.40625 456.015625 486.324219 455.902344 486.226562 C 455.886719 486.203125 455.863281 486.1875 455.84375 486.171875 C 455.722656 486.046875 455.617188 485.914062 455.535156 485.765625 C 455.523438 485.742188 455.511719 485.714844 455.503906 485.691406 C 455.425781 485.53125 455.375 485.359375 455.355469 485.179688 C 455.355469 485.167969 455.347656 485.160156 455.347656 485.148438 C 455.347656 485.117188 455.351562 485.089844 455.347656 485.058594 C 455.347656 485 455.347656 484.945312 455.351562 484.882812 C 455.355469 484.832031 455.363281 484.78125 455.371094 484.730469 C 455.378906 484.679688 455.390625 484.628906 455.402344 484.578125 C 455.417969 484.519531 455.441406 484.464844 455.460938 484.410156 C 455.472656 484.386719 455.476562 484.355469 455.488281 484.324219 C 455.5 484.3125 455.507812 484.296875 455.519531 484.28125 C 455.542969 484.230469 455.574219 484.179688 455.609375 484.132812 C 455.632812 484.089844 455.660156 484.046875 455.6875 484.011719 C 455.722656 483.96875 455.757812 483.929688 455.796875 483.890625 C 455.832031 483.855469 455.863281 483.816406 455.90625 483.78125 C 455.945312 483.75 455.992188 483.714844 456.03125 483.6875 C 456.074219 483.65625 456.113281 483.625 456.160156 483.605469 C 456.207031 483.578125 456.25 483.554688 456.300781 483.535156 C 456.347656 483.511719 456.394531 483.492188 456.445312 483.476562 C 456.492188 483.460938 456.542969 483.449219 456.589844 483.4375 C 456.648438 483.425781 456.703125 483.410156 456.761719 483.402344 C 456.777344 483.402344 456.792969 483.394531 456.8125 483.394531 L 467.773438 482.417969 L 456.28125 477.105469 C 456.136719 477.042969 456.015625 476.957031 455.902344 476.859375 C 455.886719 476.835938 455.863281 476.820312 455.84375 476.804688 C 455.722656 476.679688 455.617188 476.546875 455.535156 476.394531 C 455.523438 476.375 455.511719 476.347656 455.503906 476.324219 C 455.425781 476.164062 455.375 475.992188 455.355469 475.8125 C 455.355469 475.800781 455.347656 475.792969 455.347656 475.78125 C 455.347656 475.75 455.351562 475.722656 455.347656 475.691406 C 455.347656 475.632812 455.347656 475.578125 455.351562 475.519531 C 455.355469 475.464844 455.363281 475.414062 455.371094 475.363281 C 455.378906 475.3125 455.390625 475.261719 455.402344 475.210938 C 455.417969 475.152344 455.441406 475.097656 455.460938 475.042969 C 455.472656 475.019531 455.476562 474.988281 455.488281 474.957031 C 455.5 474.941406 455.507812 474.929688 455.519531 474.914062 C 455.542969 474.863281 455.574219 474.8125 455.609375 474.761719 C 455.632812 474.722656 455.660156 474.679688 455.6875 474.644531 C 455.722656 474.601562 455.757812 474.5625 455.796875 474.523438 C 455.832031 474.488281 455.863281 474.449219 455.90625 474.414062 C 455.945312 474.382812 455.988281 474.351562 456.03125 474.320312 C 456.074219 474.292969 456.113281 474.257812 456.160156 474.234375 C 456.207031 474.207031 456.25 474.1875 456.300781 474.167969 C 456.347656 474.144531 456.394531 474.125 456.445312 474.109375 C 456.492188 474.089844 456.539062 474.082031 456.589844 474.070312 C 456.648438 474.058594 456.703125 474.042969 456.761719 474.035156 C 456.777344 474.035156 456.792969 474.027344 456.8125 474.027344 L 467.773438 473.050781 L 456.28125 467.738281 C 456.136719 467.671875 456.015625 467.582031 455.902344 467.488281 C 455.886719 467.46875 455.863281 467.453125 455.84375 467.4375 C 455.722656 467.3125 455.617188 467.179688 455.535156 467.027344 C 455.523438 467.007812 455.511719 466.980469 455.503906 466.957031 C 455.425781 466.796875 455.375 466.625 455.355469 466.445312 C 455.355469 466.433594 455.347656 466.425781 455.347656 466.414062 C 455.347656 466.382812 455.351562 466.355469 455.347656 466.324219 C 455.347656 466.265625 455.347656 466.210938 455.351562 466.148438 C 455.355469 466.097656 455.363281 466.046875 455.371094 465.996094 C 455.378906 465.945312 455.390625 465.894531 455.402344 465.84375 C 455.417969 465.785156 455.441406 465.730469 455.460938 465.675781 C 455.472656 465.644531 455.476562 465.621094 455.488281 465.589844 C 455.5 465.574219 455.507812 465.5625 455.519531 465.546875 C 455.542969 465.496094 455.574219 465.445312 455.609375 465.394531 C 455.632812 465.355469 455.660156 465.3125 455.6875 465.277344 C 455.722656 465.234375 455.757812 465.191406 455.796875 465.152344 C 455.832031 465.117188 455.863281 465.082031 455.90625 465.046875 C 455.945312 465.011719 455.992188 464.980469 456.03125 464.949219 C 456.074219 464.921875 456.113281 464.890625 456.160156 464.867188 C 456.207031 464.839844 456.257812 464.820312 456.300781 464.800781 C 456.347656 464.777344 456.394531 464.757812 456.445312 464.742188 C 456.492188 464.722656 456.539062 464.714844 456.589844 464.703125 C 456.648438 464.691406 456.703125 464.675781 456.761719 464.667969 C 456.777344 464.667969 456.792969 464.660156 456.8125 464.660156 L 467.773438 463.683594 L 456.28125 458.371094 C 455.609375 458.058594 455.253906 457.34375 455.367188 456.644531 L 438.921875 456.644531 L 438.921875 571.410156 C 438.445312 571.132812 437.898438 570.960938 437.304688 570.960938 C 436.714844 570.960938 436.164062 571.132812 435.691406 571.410156 L 435.691406 456.644531 L 418.898438 456.644531 C 414.480469 456.644531 410.898438 453.0625 410.898438 448.636719 L 410.898438 381.554688 C 410.898438 377.132812 414.480469 373.546875 418.898438 373.546875 L 485.910156 373.546875 C 490.328125 373.546875 493.910156 377.132812 493.910156 381.554688 L 493.910156 448.636719 C 493.910156 453.0625 490.328125 456.644531 485.910156 456.644531 L 460.25 456.644531 L 474.625 463.289062 C 475.289062 463.59375 475.664062 464.3125 475.539062 465.03125 C 475.417969 465.753906 474.820312 466.304688 474.089844 466.367188 Z M 451.421875 416.925781 L 451.300781 423.195312 C 451.300781 423.207031 451.300781 423.222656 451.300781 423.238281 C 451.3125 423.847656 451.816406 424.335938 452.425781 424.320312 C 453.03125 424.308594 453.519531 423.804688 453.507812 423.195312 L 453.386719 416.925781 C 454.042969 416.574219 454.492188 415.890625 454.492188 415.09375 C 454.492188 414.273438 454.007812 413.566406 453.320312 413.226562 L 452.945312 393.71875 C 452.9375 393.433594 452.703125 393.195312 452.414062 393.1875 C 452.117188 393.183594 451.871094 393.425781 451.867188 393.71875 L 451.492188 413.226562 C 450.796875 413.566406 450.320312 414.273438 450.320312 415.09375 C 450.320312 415.890625 450.769531 416.574219 451.421875 416.925781 Z M 180.078125 241.0625 L 170.511719 235.941406 L 170.511719 237.757812 C 170.511719 238.347656 170.328125 238.890625 170.023438 239.347656 L 178.554688 243.917969 C 180.734375 245.082031 181.953125 247.421875 181.671875 249.859375 L 173.796875 313.65625 C 173.15625 318.820312 170.929688 323.554688 167.605469 327.324219 C 168.203125 327.46875 168.769531 327.789062 169.214844 328.277344 C 169.5625 328.660156 169.789062 329.109375 169.921875 329.574219 C 173.730469 325.308594 176.273438 319.929688 177.003906 314.050781 L 184.882812 250.25 C 185.320312 246.464844 183.433594 242.859375 180.078125 241.0625 Z M 155.019531 238.433594 L 155.019531 235.230469 C 155.019531 235.226562 155.019531 235.21875 155.019531 235.214844 L 154.980469 235.214844 L 154.980469 238.453125 L 155.019531 238.453125 C 155.019531 238.441406 155.019531 238.4375 155.019531 238.433594 Z M 120.523438 328.617188 C 120.960938 328.117188 121.515625 327.789062 122.113281 327.632812 C 118.632812 323.816406 116.304688 318.960938 115.648438 313.65625 L 107.769531 249.875 C 107.488281 247.421875 108.710938 245.082031 110.890625 243.917969 L 119.421875 239.347656 C 119.113281 238.890625 118.933594 238.347656 118.933594 237.757812 L 118.933594 235.941406 L 109.363281 241.0625 C 106.007812 242.859375 104.125 246.464844 104.5625 250.261719 L 112.441406 314.050781 C 113.1875 320.089844 115.851562 325.609375 119.835938 329.929688 C 119.960938 329.457031 120.179688 329.003906 120.523438 328.617188 Z M 133.441406 454.28125 C 134.433594 455.492188 135.027344 457.035156 135.027344 458.722656 C 135.027344 462.589844 131.898438 465.726562 128.035156 465.726562 C 124.171875 465.726562 121.039062 462.589844 121.039062 458.722656 C 121.039062 455.054688 123.855469 452.050781 127.441406 451.75 C 128.730469 449.453125 130.339844 447.269531 132.125 445.179688 C 130.828125 444.789062 129.457031 444.574219 128.035156 444.574219 C 120.226562 444.574219 113.898438 450.910156 113.898438 458.722656 C 113.898438 466.535156 120.226562 472.871094 128.035156 472.871094 C 135.839844 472.871094 142.167969 466.535156 142.167969 458.722656 C 142.167969 454.699219 140.484375 451.082031 137.792969 448.503906 C 136.121094 450.378906 134.625 452.308594 133.441406 454.28125 Z M 383.660156 514.289062 C 381.59375 514.574219 379.542969 514.9375 377.5 515.308594 C 375.449219 515.679688 373.414062 516.101562 371.375 516.496094 C 369.339844 516.941406 367.304688 517.355469 365.277344 517.828125 C 363.25 518.296875 361.226562 518.773438 359.214844 519.320312 C 359.117188 519.34375 359.050781 519.441406 359.0625 519.546875 C 359.078125 519.660156 359.183594 519.734375 359.296875 519.722656 C 361.359375 519.4375 363.410156 519.082031 365.457031 518.714844 C 367.507812 518.355469 369.542969 517.9375 371.585938 517.550781 C 373.621094 517.117188 375.660156 516.703125 377.6875 516.242188 C 379.714844 515.78125 381.746094 515.308594 383.757812 514.765625 C 383.875 514.734375 383.949219 514.617188 383.933594 514.496094 C 383.914062 514.359375 383.789062 514.269531 383.660156 514.289062 Z M 385.632812 506.003906 C 383.640625 506.417969 381.671875 506.894531 379.703125 507.363281 C 377.738281 507.835938 375.78125 508.339844 373.808594 508.78125 C 371.855469 509.265625 369.863281 509.714844 367.917969 510.101562 C 366.957031 510.277344 365.980469 510.34375 365.066406 510.128906 C 364.148438 509.929688 363.277344 509.429688 362.757812 508.636719 C 362.703125 508.554688 362.585938 508.515625 362.496094 508.5625 C 362.390625 508.609375 362.347656 508.734375 362.394531 508.835938 C 362.867188 509.835938 363.851562 510.5 364.871094 510.828125 C 365.925781 511.152344 367.019531 511.121094 368.050781 511.003906 C 370.101562 510.714844 372.0625 510.257812 374.054688 509.828125 C 376.03125 509.347656 378 508.847656 379.949219 508.289062 C 381.902344 507.722656 383.839844 507.132812 385.757812 506.476562 C 385.875 506.4375 385.945312 506.316406 385.917969 506.195312 C 385.894531 506.0625 385.761719 505.980469 385.632812 506.003906 Z M 310.242188 471.136719 L 283.929688 515.96875 L 284.097656 511.113281 L 278.09375 495.34375 C 278.144531 496.640625 276.726562 497.527344 275.582031 496.824219 L 273.464844 495.519531 C 273.109375 494.667969 272.769531 493.8125 272.398438 492.964844 C 271.804688 491.617188 271.242188 490.257812 270.625 488.921875 C 269.417969 486.238281 268.183594 483.566406 266.90625 480.914062 L 266.898438 480.910156 C 266.808594 480.710938 266.59375 480.59375 266.367188 480.628906 C 264.855469 480.863281 263.359375 481.144531 261.851562 481.414062 C 260.347656 481.679688 258.851562 481.984375 257.351562 482.300781 C 257.230469 482.324219 257.148438 482.4375 257.160156 482.5625 C 257.171875 482.695312 257.292969 482.792969 257.429688 482.78125 C 258.949219 482.625 260.472656 482.460938 261.980469 482.253906 C 263.371094 482.074219 264.757812 481.894531 266.136719 481.6875 C 267.300781 484.253906 268.503906 486.800781 269.730469 489.34375 C 270.355469 490.671875 271.035156 491.980469 271.6875 493.296875 C 272.34375 494.617188 273.027344 495.921875 273.726562 497.21875 C 273.769531 497.3125 273.882812 497.351562 273.980469 497.3125 C 273.988281 497.3125 273.988281 497.304688 273.992188 497.296875 C 275.65625 500.285156 274.9375 501.691406 273.976562 502.347656 L 278.171875 513.371094 L 282.535156 517.941406 C 282.585938 517.996094 282.640625 518.035156 282.699219 518.066406 L 257.179688 561.546875 L 344.359375 561.546875 L 365.722656 530.6875 C 365.722656 530.785156 365.78125 530.871094 365.882812 530.890625 C 367.070312 531.085938 368.277344 531.144531 369.480469 531.128906 C 370.683594 531.121094 371.886719 530.992188 373.078125 530.796875 C 374.269531 530.589844 375.445312 530.3125 376.585938 529.925781 C 377.730469 529.539062 378.851562 529.085938 379.902344 528.507812 C 380.003906 528.453125 380.054688 528.335938 380.019531 528.222656 C 379.980469 528.09375 379.84375 528.015625 379.714844 528.058594 C 378.582031 528.390625 377.457031 528.726562 376.320312 529.007812 C 375.183594 529.285156 374.046875 529.539062 372.894531 529.734375 C 371.746094 529.945312 370.589844 530.09375 369.425781 530.21875 C 368.257812 530.339844 367.089844 530.414062 365.90625 530.480469 C 365.847656 530.480469 365.804688 530.515625 365.769531 530.550781 C 364.269531 530.792969 362.988281 530.863281 362.066406 530.667969 C 357.195312 529.65625 359.570312 527.402344 359.183594 525.804688 C 360.941406 526.605469 362.871094 527.015625 364.796875 527.128906 C 366.78125 527.246094 368.769531 527.03125 370.707031 526.65625 C 372.636719 526.230469 374.519531 525.640625 376.339844 524.925781 C 378.160156 524.203125 379.929688 523.390625 381.667969 522.519531 C 381.773438 522.464844 381.828125 522.339844 381.792969 522.21875 C 381.746094 522.09375 381.605469 522.023438 381.480469 522.070312 C 379.640625 522.703125 377.835938 523.410156 376.011719 524.027344 C 374.1875 524.652344 372.359375 525.226562 370.484375 525.601562 C 368.628906 526.023438 366.726562 526.222656 364.832031 526.21875 C 362.933594 526.210938 361.03125 525.941406 359.199219 525.367188 C 359.132812 525.351562 359.070312 525.375 359.015625 525.417969 C 358.957031 525.324219 358.894531 525.234375 358.804688 525.152344 C 357.171875 523.597656 359.035156 519.9375 359.035156 519.9375 C 359.035156 519.9375 357.402344 519.9375 355.539062 519.9375 C 353.671875 519.9375 352.507812 518.769531 352.507812 515.734375 C 352.507812 512.703125 362.53125 508.503906 362.53125 508.503906 C 362.53125 508.503906 363.230469 505.464844 365.332031 503.367188 C 367.429688 501.265625 390.023438 495.511719 390.023438 495.511719 L 395.589844 487.472656 C 395.589844 487.472656 395.589844 487.507812 395.597656 487.527344 L 406.9375 471.136719 Z M 326.421875 454.8125 C 325.59375 453.066406 324.757812 451.320312 323.863281 449.605469 C 323.816406 449.519531 323.707031 449.472656 323.609375 449.511719 C 323.5 449.546875 323.445312 449.667969 323.484375 449.769531 C 324.140625 451.59375 324.859375 453.390625 325.585938 455.179688 C 326.316406 456.96875 327.09375 458.734375 327.84375 460.515625 C 328.636719 462.277344 329.410156 464.046875 330.226562 465.796875 C 331.046875 467.546875 331.878906 469.289062 332.773438 471.007812 C 332.828125 471.113281 332.953125 471.167969 333.070312 471.125 C 333.199219 471.078125 333.265625 470.941406 333.21875 470.808594 C 332.558594 468.992188 331.835938 467.199219 331.097656 465.414062 C 330.367188 463.625 329.585938 461.859375 328.828125 460.082031 C 328.023438 458.324219 327.246094 456.558594 326.421875 454.8125 Z M 260.449219 433.589844 C 260.421875 433.703125 260.488281 433.816406 260.597656 433.84375 C 262.640625 434.367188 264.726562 434.738281 266.351562 435.835938 C 267.171875 436.351562 267.816406 437.113281 268.554688 437.890625 C 269.273438 438.652344 270.105469 439.480469 271.1875 439.851562 C 271.289062 439.890625 271.410156 439.851562 271.472656 439.753906 C 271.546875 439.640625 271.511719 439.488281 271.398438 439.414062 L 271.394531 439.410156 C 270.550781 438.867188 269.921875 438.085938 269.277344 437.265625 C 268.636719 436.445312 267.917969 435.558594 266.945312 434.9375 C 265.988281 434.316406 264.917969 433.9375 263.851562 433.738281 C 262.78125 433.527344 261.714844 433.441406 260.652344 433.433594 C 260.558594 433.433594 260.476562 433.496094 260.449219 433.589844 Z M 287.234375 434.246094 C 286.605469 434.429688 286.019531 434.769531 285.515625 435.191406 C 284.515625 436.035156 283.816406 437.3125 283.855469 438.609375 C 283.855469 438.691406 283.90625 438.765625 283.984375 438.800781 C 284.09375 438.84375 284.214844 438.789062 284.261719 438.6875 L 284.261719 438.679688 C 284.488281 438.136719 284.75 437.644531 285.078125 437.203125 C 285.414062 436.765625 285.78125 436.355469 286.203125 436.019531 C 286.621094 435.664062 287.089844 435.382812 287.574219 435.140625 C 288.066406 434.898438 288.597656 434.734375 289.167969 434.613281 L 289.171875 434.613281 C 289.265625 434.589844 289.34375 434.519531 289.363281 434.421875 C 289.394531 434.289062 289.304688 434.152344 289.171875 434.128906 C 288.535156 433.988281 287.867188 434.058594 287.234375 434.246094 Z M 243.792969 354.570312 C 244.203125 354.53125 244.75 354.8125 245.277344 355.125 C 246.320312 355.746094 247.289062 356.558594 248.03125 357.464844 L 248.046875 357.484375 C 248.175781 357.644531 248.398438 357.71875 248.613281 357.652344 C 248.890625 357.5625 249.046875 357.269531 248.960938 356.992188 C 248.253906 354.738281 247.171875 352.59375 245.703125 350.753906 C 244.957031 349.835938 244.191406 348.972656 243.253906 348.210938 C 242.339844 347.46875 240.96875 346.925781 239.773438 347.488281 C 239.683594 347.535156 239.632812 347.644531 239.664062 347.742188 C 239.703125 347.851562 239.820312 347.910156 239.925781 347.871094 L 239.933594 347.871094 C 240.945312 347.53125 242.03125 348.015625 242.800781 348.753906 C 243.601562 349.5 244.339844 350.386719 244.992188 351.292969 C 245.847656 352.496094 246.574219 353.789062 247.160156 355.148438 C 246.722656 354.8125 246.269531 354.507812 245.800781 354.226562 C 245.230469 353.921875 244.605469 353.507812 243.707031 353.558594 C 243.265625 353.566406 242.703125 353.910156 242.542969 354.410156 C 242.375 354.902344 242.480469 355.304688 242.550781 355.640625 C 243.207031 358.183594 244.324219 360.589844 245.882812 362.664062 C 245.960938 362.765625 246.097656 362.796875 246.203125 362.726562 C 246.320312 362.660156 246.359375 362.507812 246.289062 362.394531 C 244.988281 360.226562 244.023438 357.863281 243.496094 355.425781 C 243.4375 355.140625 243.429688 354.882812 243.480469 354.757812 C 243.535156 354.640625 243.601562 354.585938 243.792969 354.570312 Z M 254.414062 355.539062 C 254.144531 354.71875 253.894531 353.886719 253.707031 353.042969 C 253.5 352.207031 253.355469 351.355469 253.230469 350.496094 C 253.109375 349.636719 253.039062 348.765625 252.972656 347.882812 C 252.964844 347.792969 252.902344 347.710938 252.808594 347.691406 C 252.695312 347.671875 252.585938 347.738281 252.5625 347.851562 C 252.363281 348.738281 252.304688 349.652344 252.320312 350.566406 C 252.332031 351.480469 252.460938 352.390625 252.652344 353.289062 C 252.863281 354.179688 253.140625 355.058594 253.523438 355.886719 C 253.898438 356.722656 254.347656 357.523438 254.914062 358.238281 C 254.980469 358.324219 255.09375 358.355469 255.199219 358.3125 C 255.324219 358.261719 255.382812 358.121094 255.332031 357.992188 C 255.003906 357.171875 254.679688 356.363281 254.414062 355.539062 Z M 320.851562 345.042969 C 320.9375 345.113281 321.0625 345.125 321.15625 345.054688 C 321.265625 344.976562 321.289062 344.824219 321.210938 344.714844 C 320.550781 343.808594 319.746094 343.015625 318.867188 342.3125 C 317.988281 341.609375 317.019531 341.023438 316.003906 340.535156 C 314.980469 340.0625 313.910156 339.683594 312.808594 339.460938 C 311.710938 339.230469 310.585938 339.113281 309.472656 339.175781 C 309.378906 339.183594 309.300781 339.25 309.28125 339.347656 C 309.261719 339.457031 309.335938 339.566406 309.449219 339.585938 C 310.515625 339.785156 311.5625 340.023438 312.582031 340.339844 C 313.589844 340.671875 314.589844 341.046875 315.539062 341.507812 C 316.5 341.964844 317.414062 342.503906 318.304688 343.082031 C 319.191406 343.671875 320.027344 344.339844 320.851562 345.042969 Z M 297.414062 389.015625 C 297.933594 389.066406 298.460938 389.042969 298.984375 388.996094 C 299.503906 388.9375 300.023438 388.855469 300.523438 388.703125 C 301.027344 388.550781 301.519531 388.371094 301.984375 388.105469 C 302.058594 388.058594 302.109375 387.96875 302.105469 387.878906 C 302.101562 387.738281 301.984375 387.628906 301.84375 387.632812 C 301.328125 387.652344 300.832031 387.71875 300.335938 387.769531 L 298.867188 387.929688 L 297.394531 388.105469 C 296.898438 388.164062 296.402344 388.214844 295.894531 388.3125 C 295.824219 388.324219 295.753906 388.375 295.730469 388.453125 C 295.691406 388.5625 295.753906 388.6875 295.863281 388.71875 C 296.371094 388.890625 296.886719 388.96875 297.414062 389.015625 Z M 309.460938 379.480469 C 309.53125 379.402344 309.535156 379.285156 309.46875 379.203125 C 309.394531 379.117188 309.265625 379.109375 309.175781 379.179688 C 307.558594 380.53125 305.765625 381.652344 303.847656 382.464844 C 301.933594 383.277344 299.910156 383.832031 297.84375 384.003906 C 295.78125 384.222656 293.691406 384.066406 291.65625 383.628906 C 289.625 383.191406 287.65625 382.429688 285.8125 381.417969 C 285.707031 381.355469 285.570312 381.386719 285.496094 381.488281 C 285.417969 381.597656 285.441406 381.75 285.550781 381.828125 C 287.308594 383.097656 289.328125 384.003906 291.4375 384.554688 C 293.550781 385.105469 295.765625 385.265625 297.949219 385.078125 C 300.121094 384.832031 302.265625 384.25 304.226562 383.292969 C 306.1875 382.34375 307.984375 381.058594 309.460938 379.480469 Z M 300.378906 367.484375 C 299.246094 368.195312 297.796875 368.40625 296.378906 368.3125 C 296.261719 368.304688 296.152344 368.378906 296.121094 368.5 C 296.085938 368.628906 296.167969 368.761719 296.300781 368.792969 C 297.769531 369.152344 299.421875 369.078125 300.855469 368.308594 C 301.574219 367.945312 302.207031 367.324219 302.597656 366.578125 C 302.988281 365.839844 303.148438 365.019531 303.183594 364.234375 C 303.199219 362.652344 302.910156 361.203125 302.613281 359.75 C 302.296875 358.296875 301.90625 356.859375 301.398438 355.464844 C 301.363281 355.378906 301.265625 355.320312 301.171875 355.335938 C 301.058594 355.351562 300.980469 355.460938 301.003906 355.574219 C 301.253906 357.023438 301.511719 358.464844 301.722656 359.910156 C 301.902344 361.351562 302.179688 362.820312 302.109375 364.191406 C 302.082031 364.871094 301.96875 365.53125 301.679688 366.105469 C 301.402344 366.679688 300.933594 367.121094 300.378906 367.484375 Z M 289.230469 339.445312 C 289.34375 339.425781 289.425781 339.328125 289.429688 339.207031 C 289.429688 339.074219 289.328125 338.960938 289.1875 338.960938 C 287.832031 338.941406 286.472656 339.128906 285.148438 339.453125 C 283.824219 339.769531 282.535156 340.257812 281.3125 340.863281 C 280.09375 341.480469 278.929688 342.207031 277.878906 343.078125 C 276.820312 343.9375 275.855469 344.90625 275.050781 346 C 274.992188 346.078125 274.996094 346.1875 275.0625 346.261719 C 275.136719 346.347656 275.269531 346.351562 275.351562 346.277344 C 276.332031 345.382812 277.347656 344.550781 278.425781 343.804688 C 279.5 343.066406 280.621094 342.398438 281.789062 341.828125 C 282.957031 341.246094 284.167969 340.777344 285.410156 340.371094 C 286.648438 339.972656 287.925781 339.679688 289.230469 339.445312 Z M 267.179688 392.066406 L 265.523438 390.414062 C 265.003906 389.835938 264.535156 389.207031 264.035156 388.609375 L 263.285156 387.707031 L 262.632812 386.734375 L 261.335938 384.773438 L 261.324219 384.753906 C 261.257812 384.652344 261.117188 384.613281 261.007812 384.675781 C 260.886719 384.738281 260.84375 384.886719 260.910156 385.003906 C 262.421875 387.796875 264.199219 390.515625 266.507812 392.746094 C 268.789062 394.988281 271.324219 396.996094 274.09375 398.59375 C 276.871094 400.175781 279.78125 401.515625 282.800781 402.53125 C 285.820312 403.546875 288.917969 404.304688 292.085938 404.675781 C 292.191406 404.683594 292.292969 404.617188 292.3125 404.507812 C 292.335938 404.394531 292.257812 404.285156 292.144531 404.265625 L 292.136719 404.265625 C 290.601562 403.980469 289.070312 403.601562 287.566406 403.144531 C 286.0625 402.71875 284.570312 402.222656 283.101562 401.675781 C 280.175781 400.570312 277.324219 399.257812 274.636719 397.664062 C 271.90625 396.140625 269.457031 394.183594 267.179688 392.066406 Z M 280.25 475.152344 C 280.515625 475.257812 280.820312 475.132812 280.929688 474.867188 L 291.761719 448.101562 C 295.394531 439.1875 298.953125 430.246094 302.5 421.300781 C 302.550781 421.171875 302.492188 421.035156 302.371094 420.984375 C 302.242188 420.933594 302.101562 420.988281 302.050781 421.113281 C 298.320312 429.988281 294.601562 438.867188 290.957031 447.769531 L 280.339844 473.566406 C 273.984375 463.882812 267.53125 454.265625 261.132812 444.617188 L 251.242188 429.742188 L 241.269531 414.925781 C 241.203125 414.832031 241.078125 414.808594 240.984375 414.871094 C 240.890625 414.929688 240.863281 415.0625 240.921875 415.152344 L 250.621094 430.152344 L 260.40625 445.097656 C 266.945312 455.042969 273.421875 465.039062 280.011719 474.953125 C 280.070312 475.039062 280.148438 475.109375 280.25 475.152344 Z M 243.175781 469.128906 C 243.839844 465.042969 243.941406 460.855469 243.339844 456.75 C 242.726562 452.652344 241.46875 448.644531 239.59375 444.949219 C 237.699219 441.265625 235.292969 437.859375 232.441406 434.878906 C 226.753906 428.894531 219.761719 424.246094 212.15625 421.152344 C 212.054688 421.109375 211.933594 421.160156 211.890625 421.261719 C 211.84375 421.367188 211.894531 421.488281 212 421.53125 L 212.011719 421.535156 C 215.742188 423.125 219.285156 425.203125 222.609375 427.527344 C 225.925781 429.867188 229.050781 432.5 231.773438 435.496094 C 234.515625 438.476562 236.871094 441.800781 238.691406 445.40625 C 240.507812 449.011719 241.703125 452.914062 242.273438 456.902344 C 242.867188 460.890625 242.792969 464.976562 242.15625 468.964844 C 241.519531 472.964844 240.421875 476.894531 239.167969 480.765625 C 237.90625 484.636719 236.445312 488.449219 234.863281 492.207031 C 233.300781 495.976562 231.613281 499.699219 229.78125 503.34375 C 229.722656 503.460938 229.769531 503.613281 229.882812 503.675781 C 230.003906 503.734375 230.152344 503.691406 230.214844 503.570312 C 234.054688 496.335938 237.410156 488.835938 240.074219 481.066406 C 241.40625 477.1875 242.5 473.207031 243.175781 469.128906 Z M 170.910156 533.808594 L 163.621094 529.714844 L 156.265625 525.742188 C 153.804688 524.445312 151.335938 523.152344 148.832031 521.921875 C 148.738281 521.875 148.621094 521.90625 148.566406 521.996094 C 148.507812 522.09375 148.539062 522.21875 148.636719 522.28125 C 151.007812 523.742188 153.417969 525.148438 155.828125 526.542969 L 163.105469 530.65625 L 170.445312 534.644531 C 172.910156 535.953125 175.375 537.25 177.875 538.484375 C 177.988281 538.539062 178.125 538.5 178.1875 538.390625 C 178.261719 538.277344 178.226562 538.125 178.109375 538.054688 C 175.734375 536.597656 173.324219 535.199219 170.910156 533.808594 Z M 170.335938 542.878906 C 169.285156 542.820312 168.277344 543.058594 167.328125 543.382812 C 166.378906 543.710938 165.484375 544.199219 164.710938 544.824219 C 164.632812 544.890625 164.609375 545 164.660156 545.085938 C 164.71875 545.1875 164.847656 545.222656 164.941406 545.164062 C 165.769531 544.699219 166.660156 544.375 167.554688 544.136719 C 167.933594 544.039062 168.3125 543.984375 168.695312 543.933594 C 168.355469 544.203125 168.019531 544.472656 167.699219 544.757812 C 166.980469 545.429688 166.3125 546.152344 165.695312 546.914062 C 165.070312 547.667969 164.542969 548.503906 164.0625 549.347656 C 163.582031 550.199219 163.183594 551.097656 162.875 552.019531 C 162.835938 552.128906 162.882812 552.253906 162.992188 552.316406 C 163.109375 552.378906 163.257812 552.335938 163.320312 552.214844 C 163.769531 551.375 164.261719 550.574219 164.777344 549.792969 C 165.296875 549.007812 165.886719 548.28125 166.480469 547.558594 C 167.082031 546.847656 167.734375 546.179688 168.421875 545.554688 C 169.101562 544.914062 169.824219 544.320312 170.585938 543.78125 L 170.597656 543.773438 C 170.714844 543.6875 170.792969 543.554688 170.800781 543.398438 C 170.816406 543.128906 170.609375 542.898438 170.335938 542.878906 Z M 247.289062 519.417969 C 246.652344 519.519531 246.042969 519.621094 245.429688 519.675781 C 244.816406 519.726562 244.203125 519.765625 243.59375 519.753906 C 242.980469 519.753906 242.375 519.703125 241.761719 519.636719 C 241.148438 519.570312 240.542969 519.457031 239.914062 519.347656 C 239.816406 519.332031 239.714844 519.375 239.65625 519.460938 C 239.585938 519.574219 239.617188 519.730469 239.738281 519.804688 C 240.300781 520.164062 240.9375 520.40625 241.585938 520.578125 C 242.234375 520.753906 242.914062 520.820312 243.585938 520.832031 C 244.257812 520.820312 244.9375 520.75 245.589844 520.574219 C 246.238281 520.40625 246.867188 520.160156 247.4375 519.804688 C 247.503906 519.761719 247.546875 519.675781 247.527344 519.59375 C 247.511719 519.480469 247.402344 519.398438 247.289062 519.417969 Z M 259.015625 504.855469 C 259.113281 503.699219 259.054688 502.535156 258.785156 501.414062 C 258.761719 501.324219 258.679688 501.257812 258.582031 501.257812 C 258.46875 501.257812 258.375 501.351562 258.375 501.464844 C 258.378906 502.578125 258.304688 503.667969 258.109375 504.738281 C 257.914062 505.800781 257.636719 506.851562 257.238281 507.859375 C 256.851562 508.863281 256.359375 509.828125 255.789062 510.75 C 255.214844 511.667969 254.539062 512.527344 253.796875 513.347656 C 253.722656 513.429688 253.710938 513.558594 253.777344 513.652344 C 253.851562 513.761719 254.003906 513.792969 254.117188 513.710938 C 255.0625 513.058594 255.878906 512.222656 256.574219 511.289062 C 257.273438 510.363281 257.824219 509.328125 258.242188 508.242188 C 258.648438 507.148438 258.925781 506.011719 259.015625 504.855469 Z M 257.3125 499.925781 C 258.191406 500.074219 259.0625 500.242188 259.945312 500.371094 C 261.320312 501.160156 262.679688 501.988281 264.082031 502.742188 C 265.5 503.53125 266.929688 504.308594 268.386719 505.035156 C 268.472656 505.082031 268.585938 505.054688 268.644531 504.96875 C 268.710938 504.875 268.6875 504.75 268.597656 504.683594 C 267.261719 503.746094 265.902344 502.855469 264.535156 501.980469 C 263.175781 501.089844 261.777344 500.269531 260.394531 499.410156 C 260.347656 499.378906 260.289062 499.355469 260.230469 499.34375 L 260.210938 499.339844 C 259.304688 499.167969 258.386719 499.046875 257.480469 498.898438 L 254.746094 498.480469 C 252.917969 498.238281 251.09375 497.988281 249.25 497.824219 C 249.132812 497.816406 249.019531 497.890625 248.988281 498.011719 C 248.960938 498.140625 249.039062 498.277344 249.167969 498.304688 C 250.964844 498.738281 252.777344 499.09375 254.589844 499.445312 Z M 252.472656 491.507812 C 254.175781 492.195312 255.898438 492.824219 257.625 493.441406 C 259.3125 494.058594 261.027344 494.613281 262.726562 495.195312 C 263.476562 495.863281 264.246094 496.503906 265.003906 497.160156 L 267.375 499.171875 C 268.972656 500.496094 270.578125 501.8125 272.230469 503.074219 C 272.3125 503.136719 272.429688 503.128906 272.503906 503.054688 C 272.585938 502.976562 272.585938 502.847656 272.503906 502.761719 C 271.03125 501.292969 269.511719 499.878906 267.988281 498.46875 L 265.675781 496.390625 C 264.898438 495.699219 264.136719 494.996094 263.347656 494.320312 L 263.335938 494.3125 C 263.285156 494.269531 263.226562 494.238281 263.164062 494.214844 C 261.414062 493.664062 259.679688 493.074219 257.917969 492.554688 C 256.164062 492.019531 254.402344 491.503906 252.625 491.039062 C 252.507812 491.011719 252.382812 491.074219 252.339844 491.1875 C 252.289062 491.3125 252.347656 491.457031 252.472656 491.507812 Z M 273.914062 477.890625 L 273.902344 477.855469 C 273.890625 477.824219 273.863281 477.785156 273.839844 477.753906 C 272.894531 476.65625 271.949219 475.558594 270.933594 474.515625 C 270.855469 474.4375 270.726562 474.414062 270.628906 474.484375 C 270.515625 474.554688 270.480469 474.707031 270.550781 474.820312 C 271.316406 476.019531 272.15625 477.164062 272.996094 478.308594 C 273.542969 479.890625 274.144531 481.457031 274.777344 483.011719 C 275.09375 483.800781 275.4375 484.574219 275.777344 485.355469 C 276.109375 486.136719 276.480469 486.902344 276.863281 487.664062 C 276.90625 487.753906 277.003906 487.800781 277.097656 487.777344 C 277.210938 487.746094 277.277344 487.632812 277.246094 487.523438 C 277.023438 486.695312 276.792969 485.875 276.527344 485.070312 C 276.265625 484.261719 276.007812 483.449219 275.722656 482.652344 C 275.15625 481.054688 274.5625 479.460938 273.914062 477.890625 Z M 259.433594 455.222656 C 257.796875 455.84375 256.976562 457.675781 257.601562 459.3125 L 263.617188 475.132812 L 266.023438 474.050781 L 270.253906 474.742188 L 263.523438 457.054688 C 262.898438 455.414062 261.070312 454.59375 259.433594 455.222656 Z M 238.347656 391.601562 C 241.199219 387.828125 243.898438 383.476562 246.414062 378.757812 C 248.871094 381.023438 251.097656 382.847656 252.683594 384.089844 C 252.292969 384.777344 251.824219 385.429688 251.324219 386.050781 C 250.382812 387.167969 249.277344 388.175781 248.039062 388.984375 C 247.9375 389.046875 247.894531 389.183594 247.945312 389.292969 C 248 389.414062 248.144531 389.472656 248.269531 389.414062 C 249.691406 388.773438 250.945312 387.800781 252.019531 386.664062 C 252.558594 386.101562 253.042969 385.480469 253.460938 384.808594 C 253.457031 384.894531 253.460938 384.988281 253.453125 385.078125 C 253.378906 385.925781 253.203125 386.765625 252.976562 387.589844 C 252.527344 389.246094 251.757812 390.816406 250.742188 392.238281 C 250.6875 392.320312 250.691406 392.433594 250.765625 392.507812 C 250.847656 392.585938 250.980469 392.585938 251.058594 392.503906 C 252.328125 391.21875 253.273438 389.605469 253.875 387.867188 C 254.144531 387.078125 254.316406 386.253906 254.429688 385.425781 C 254.875 385.753906 255.125 385.925781 255.125 385.925781 C 255.125 385.925781 255.125 383.410156 255.113281 379.214844 C 255.109375 377.402344 255.101562 375.28125 255.09375 372.902344 C 254.558594 373.546875 253.875 373.816406 252.984375 373.539062 C 251.613281 373.109375 249.847656 371.730469 248.015625 369.769531 C 244.109375 365.578125 239.921875 358.738281 238.707031 352.835938 C 238.421875 351.472656 238.304688 350.164062 238.382812 348.941406 C 238.53125 346.550781 239.441406 344.515625 241.433594 343.183594 C 245.703125 340.335938 249.03125 341.589844 251.398438 343.816406 C 251.066406 344.835938 250.824219 345.882812 250.6875 346.953125 C 250.550781 348.171875 250.523438 349.402344 250.65625 350.617188 C 250.78125 351.835938 251.035156 353.039062 251.457031 354.179688 C 251.5 354.28125 251.609375 354.355469 251.726562 354.335938 C 251.859375 354.316406 251.949219 354.191406 251.933594 354.054688 C 251.761719 352.882812 251.636719 351.722656 251.605469 350.554688 C 251.585938 349.394531 251.617188 348.230469 251.757812 347.082031 C 251.84375 346.25 252 345.433594 252.183594 344.617188 C 253.425781 346.019531 254.351562 347.632812 254.941406 348.839844 C 254.933594 347.859375 254.925781 346.875 254.917969 345.878906 C 254.875 341.65625 261.191406 341.535156 260.785156 328.320312 C 260.65625 324.070312 264.191406 320.667969 268.269531 321.859375 C 281.988281 325.859375 303.613281 331.773438 325.515625 318.738281 C 325.679688 318.640625 325.839844 318.558594 326 318.460938 C 326 318.460938 325.277344 294.898438 306.085938 289.828125 C 290.589844 285.730469 275.660156 281.542969 261.347656 285.757812 C 258.425781 287.652344 242.527344 298.277344 233.914062 310.929688 C 231.066406 304.886719 232.320312 297.636719 237.167969 293.042969 C 240.074219 290.289062 243.785156 287.4375 248.222656 285.339844 C 249.324219 284.816406 250.484375 284.453125 251.660156 284.21875 C 243.488281 276.914062 230.09375 270.445312 216.546875 287.621094 C 194.824219 315.167969 216.183594 351.332031 211.113281 370.902344 C 210.621094 372.808594 210.066406 374.621094 209.464844 376.351562 C 207.945312 378.925781 206.253906 381.394531 204.351562 383.699219 C 202.410156 386.121094 200.253906 388.359375 197.953125 390.4375 C 195.644531 392.519531 193.167969 394.410156 190.566406 396.128906 C 190.480469 396.1875 190.449219 396.304688 190.5 396.398438 C 190.554688 396.5 190.679688 396.535156 190.777344 396.480469 C 193.539062 394.972656 196.132812 393.160156 198.542969 391.125 C 200.964844 389.089844 203.164062 386.8125 205.183594 384.382812 C 206.035156 383.320312 206.847656 382.230469 207.621094 381.113281 C 202.042969 394.097656 194.460938 400.976562 194.460938 400.976562 C 194.460938 400.976562 227.777344 405.578125 238.347656 391.601562 Z M 312.578125 354.117188 C 312.578125 356.023438 313.636719 357.570312 314.945312 357.570312 C 316.253906 357.570312 317.320312 356.023438 317.320312 354.117188 C 317.320312 352.210938 316.253906 350.664062 314.945312 350.664062 C 313.636719 350.664062 312.578125 352.210938 312.578125 354.117188 Z M 282.84375 350.664062 C 284.152344 350.664062 285.214844 352.210938 285.214844 354.117188 C 285.214844 356.023438 284.152344 357.570312 282.84375 357.570312 C 281.535156 357.570312 280.472656 356.023438 280.472656 354.117188 C 280.472656 352.210938 281.535156 350.664062 282.84375 350.664062 " fill-opacity="1" fill-rule="nonzero"/></g></svg>