<svg xmlns="http://www.w3.org/2000/svg" xmlns:xlink="http://www.w3.org/1999/xlink" width="500" zoomAndPan="magnify" viewBox="0 0 375 374.999991" height="500" preserveAspectRatio="xMidYMid meet" version="1.0"><defs><g/><clipPath id="id1"><path d="M 143.308594 99.269531 L 231.808594 99.269531 L 231.808594 206.519531 L 143.308594 206.519531 Z M 143.308594 99.269531 " clip-rule="nonzero"/></clipPath></defs><g clip-path="url(#id1)"><path fill="#fc2929" d="M 202.917969 146.003906 L 187.566406 161.355469 L 172.210938 146.003906 C 168.042969 141.839844 168.042969 135.082031 172.210938 130.914062 L 172.363281 130.761719 C 176.53125 126.59375 183.292969 126.59375 187.460938 130.761719 L 187.566406 130.867188 L 187.667969 130.761719 C 191.835938 126.59375 198.597656 126.59375 202.765625 130.761719 L 202.917969 130.914062 C 207.089844 135.082031 207.089844 141.839844 202.917969 146.003906 Z M 187.574219 99.265625 C 163.160156 99.265625 143.394531 119.03125 143.394531 143.4375 C 143.394531 167.824219 187.574219 206.523438 187.574219 206.523438 C 187.574219 206.523438 231.734375 167.824219 231.734375 143.4375 C 231.734375 119.03125 211.96875 99.265625 187.574219 99.265625 " fill-opacity="1" fill-rule="nonzero"/></g><g fill="#4d3535" fill-opacity="1"><g transform="translate(80.601562, 255.570936)"><g><path d="M 25.980469 -29.164062 L 25.980469 -36.519531 L 4.171875 -36.519531 L 4.171875 0 L 12.050781 0 L 12.050781 -13.980469 L 24.625 -13.980469 L 24.625 -21.128906 L 12.050781 -21.128906 L 12.050781 -29.164062 Z M 25.980469 -29.164062 "/></g></g></g><g fill="#4d3535" fill-opacity="1"><g transform="translate(108.507268, 255.570936)"><g><path d="M 26.605469 -28.171875 L 25.824219 -25.511719 C 23.371094 -27.648438 20.191406 -28.953125 16.539062 -28.953125 C 8.085938 -28.953125 1.773438 -22.589844 1.773438 -14.085938 C 1.773438 -5.582031 8.085938 0.835938 16.539062 0.835938 C 20.136719 0.835938 23.269531 -0.417969 25.667969 -2.554688 L 26.347656 0 L 32.292969 0 L 32.292969 -28.171875 Z M 17.164062 -6.363281 C 12.730469 -6.363281 9.496094 -9.703125 9.496094 -14.085938 C 9.496094 -18.519531 12.730469 -21.808594 17.164062 -21.808594 C 21.597656 -21.808594 24.832031 -18.519531 24.832031 -14.085938 C 24.832031 -9.652344 21.597656 -6.363281 17.164062 -6.363281 Z M 17.164062 -6.363281 "/></g></g></g><g fill="#4d3535" fill-opacity="1"><g transform="translate(144.497802, 255.570936)"><g><path d="M 22.121094 -28.171875 L 15.339844 -9.285156 L 8.453125 -28.171875 L 0.3125 -28.171875 L 11.789062 0 L 18.832031 0 L 29.996094 -28.171875 Z M 22.121094 -28.171875 "/></g></g></g><g fill="#4d3535" fill-opacity="1"><g transform="translate(174.959362, 255.570936)"><g><path d="M 13.617188 0.835938 C 20.761719 0.835938 25.457031 -2.921875 25.457031 -8.660156 C 25.457031 -15.546875 19.5625 -16.484375 14.972656 -17.320312 C 12.050781 -17.84375 9.652344 -18.3125 9.652344 -20.191406 C 9.652344 -21.808594 11.058594 -22.851562 13.40625 -22.851562 C 16.066406 -22.851562 17.632812 -21.753906 17.6875 -19.511719 L 24.9375 -19.511719 C 24.886719 -25.144531 20.398438 -28.953125 13.617188 -28.953125 C 6.835938 -28.953125 2.296875 -25.25 2.296875 -19.929688 C 2.296875 -13.304688 8.035156 -12.101562 12.519531 -11.320312 C 15.496094 -10.851562 17.945312 -10.277344 17.945312 -8.347656 C 17.945312 -6.46875 16.015625 -5.476562 13.929688 -5.476562 C 11.214844 -5.476562 9.285156 -6.730469 9.234375 -9.234375 L 1.824219 -9.234375 C 1.824219 -3.234375 6.574219 0.835938 13.617188 0.835938 Z M 13.617188 0.835938 "/></g></g></g><g fill="#4d3535" fill-opacity="1"><g transform="translate(202.34347, 255.570936)"><g><path d="M 18.988281 -28.953125 C 15.496094 -28.953125 12.363281 -27.703125 9.964844 -25.5625 L 8.660156 -28.171875 L 3.652344 -28.171875 L 3.652344 10.171875 L 11.269531 10.171875 L 11.269531 -1.511719 C 13.40625 0 16.066406 0.886719 18.988281 0.886719 C 27.492188 0.886719 33.753906 -5.53125 33.753906 -14.085938 C 33.753906 -22.589844 27.492188 -28.953125 18.988281 -28.953125 Z M 18.363281 -6.363281 C 13.929688 -6.363281 10.695312 -9.652344 10.695312 -14.085938 C 10.695312 -18.46875 13.929688 -21.808594 18.363281 -21.808594 C 22.796875 -21.808594 26.03125 -18.46875 26.03125 -14.085938 C 26.03125 -9.652344 22.796875 -6.363281 18.363281 -6.363281 Z M 18.363281 -6.363281 "/></g></g></g><g fill="#4d3535" fill-opacity="1"><g transform="translate(237.916729, 255.570936)"><g><path d="M 17.007812 0.835938 C 25.71875 0.835938 32.242188 -5.582031 32.242188 -14.085938 C 32.242188 -22.589844 25.71875 -28.953125 17.007812 -28.953125 C 8.296875 -28.953125 1.773438 -22.589844 1.773438 -14.085938 C 1.773438 -5.582031 8.296875 0.835938 17.007812 0.835938 Z M 17.007812 -6.363281 C 12.625 -6.363281 9.496094 -9.496094 9.496094 -14.085938 C 9.496094 -18.625 12.625 -21.808594 17.007812 -21.808594 C 21.390625 -21.808594 24.519531 -18.625 24.519531 -14.085938 C 24.519531 -9.496094 21.390625 -6.363281 17.007812 -6.363281 Z M 17.007812 -6.363281 "/></g></g></g><g fill="#4d3535" fill-opacity="1"><g transform="translate(271.977342, 255.570936)"><g><path d="M 17.425781 -6.78125 C 14.609375 -6.78125 13.042969 -8.347656 13.042969 -11.058594 L 13.042969 -22.015625 L 20.710938 -22.015625 L 20.710938 -28.171875 L 12.9375 -28.171875 L 12.9375 -35.476562 L 11.476562 -35.476562 L 0.363281 -23.683594 L 0.363281 -22.015625 L 5.425781 -22.015625 L 5.425781 -10.015625 C 5.425781 -3.808594 9.234375 0 15.441406 0 L 20.867188 0 L 20.867188 -6.78125 Z M 17.425781 -6.78125 "/></g></g></g><g fill="#fc2929" fill-opacity="1"><g transform="translate(122.933321, 288.302002)"><g><path d="M 11.238281 0 L 9.941406 -8.394531 L 8.117188 -8.394531 L 5.839844 -3.238281 L 3.5625 -8.394531 L 1.75 -8.394531 L 0.433594 0 L 2.277344 0 L 3.105469 -5.46875 L 5.613281 -0.0117188 L 6.054688 -0.0117188 L 8.5625 -5.46875 L 9.390625 0 Z M 11.238281 0 "/></g></g></g><g fill="#fc2929" fill-opacity="1"><g transform="translate(140.933795, 288.302002)"><g><path d="M 4.941406 0.191406 C 7.496094 0.191406 9.402344 -1.691406 9.402344 -4.199219 C 9.402344 -6.691406 7.496094 -8.574219 4.941406 -8.574219 C 2.375 -8.574219 0.457031 -6.679688 0.457031 -4.199219 C 0.457031 -1.703125 2.375 0.191406 4.941406 0.191406 Z M 4.941406 -1.523438 C 3.441406 -1.523438 2.300781 -2.6875 2.300781 -4.199219 C 2.300781 -5.707031 3.441406 -6.859375 4.941406 -6.859375 C 6.441406 -6.859375 7.554688 -5.71875 7.554688 -4.199219 C 7.554688 -2.675781 6.441406 -1.523438 4.941406 -1.523438 Z M 4.941406 -1.523438 "/></g></g></g><g fill="#fc2929" fill-opacity="1"><g transform="translate(157.11206, 288.302002)"><g><path d="M 6.007812 -4.425781 C 6.597656 -4.832031 6.957031 -5.503906 6.957031 -6.222656 C 6.957031 -7.460938 5.875 -8.382812 4.425781 -8.382812 L 0.960938 -8.382812 L 0.960938 0.0117188 L 4.519531 0.0117188 C 5.984375 0.0117188 7.171875 -1.066406 7.171875 -2.410156 C 7.171875 -3.308594 6.738281 -4.03125 6.007812 -4.425781 Z M 5.191406 -5.949219 C 5.191406 -5.421875 4.820312 -5.050781 4.257812 -5.050781 L 2.734375 -5.050781 L 2.734375 -6.835938 L 4.257812 -6.835938 C 4.820312 -6.835938 5.191406 -6.476562 5.191406 -5.949219 Z M 4.351562 -1.65625 L 2.734375 -1.65625 L 2.734375 -3.539062 L 4.351562 -3.539062 C 4.953125 -3.539062 5.347656 -3.140625 5.347656 -2.601562 C 5.347656 -2.050781 4.953125 -1.65625 4.351562 -1.65625 Z M 4.351562 -1.65625 "/></g></g></g><g fill="#fc2929" fill-opacity="1"><g transform="translate(171.120457, 288.302002)"><g><path d="M 0.960938 0 L 2.769531 0 L 2.769531 -8.394531 L 0.960938 -8.394531 Z M 0.960938 0 "/></g></g></g><g fill="#fc2929" fill-opacity="1"><g transform="translate(181.172746, 288.302002)"><g><path d="M 2.769531 -1.679688 L 2.769531 -8.394531 L 0.960938 -8.394531 L 0.960938 0 L 5.996094 0 L 5.996094 -1.679688 Z M 2.769531 -1.679688 "/></g></g></g><g fill="#fc2929" fill-opacity="1"><g transform="translate(193.742553, 288.302002)"><g><path d="M 2.769531 -1.679688 L 2.769531 -3.40625 L 5.683594 -3.40625 L 5.683594 -5.050781 L 2.769531 -5.050781 L 2.769531 -6.714844 L 5.996094 -6.714844 L 5.996094 -8.394531 L 0.960938 -8.394531 L 0.960938 0 L 6.128906 0 L 6.128906 -1.679688 Z M 2.769531 -1.679688 "/></g></g></g><g fill="#fc2929" fill-opacity="1"><g transform="translate(206.755931, 288.302002)"><g/></g></g><g fill="#fc2929" fill-opacity="1"><g transform="translate(215.93308, 288.302002)"><g><path d="M 6.523438 0 L 8.503906 0 L 5.109375 -8.394531 L 3.394531 -8.394531 L 0.0976562 0 L 2.027344 0 L 2.601562 -1.582031 L 5.9375 -1.582031 Z M 4.269531 -6.175781 L 5.371094 -3.167969 L 3.167969 -3.167969 Z M 4.269531 -6.175781 "/></g></g></g><g fill="#fc2929" fill-opacity="1"><g transform="translate(230.852586, 288.302002)"><g><path d="M 4.183594 -8.394531 L 0.960938 -8.394531 L 0.960938 0 L 2.769531 0 L 2.769531 -2.613281 L 4.183594 -2.613281 C 5.875 -2.613281 7.148438 -3.847656 7.148438 -5.503906 C 7.148438 -7.160156 5.863281 -8.394531 4.183594 -8.394531 Z M 4.101562 -4.292969 L 2.769531 -4.292969 L 2.769531 -6.703125 L 4.101562 -6.703125 C 4.820312 -6.703125 5.3125 -6.199219 5.3125 -5.503906 C 5.3125 -4.808594 4.820312 -4.292969 4.101562 -4.292969 Z M 4.101562 -4.292969 "/></g></g></g><g fill="#fc2929" fill-opacity="1"><g transform="translate(244.621224, 288.302002)"><g><path d="M 4.183594 -8.394531 L 0.960938 -8.394531 L 0.960938 0 L 2.769531 0 L 2.769531 -2.613281 L 4.183594 -2.613281 C 5.875 -2.613281 7.148438 -3.847656 7.148438 -5.503906 C 7.148438 -7.160156 5.863281 -8.394531 4.183594 -8.394531 Z M 4.101562 -4.292969 L 2.769531 -4.292969 L 2.769531 -6.703125 L 4.101562 -6.703125 C 4.820312 -6.703125 5.3125 -6.199219 5.3125 -5.503906 C 5.3125 -4.808594 4.820312 -4.292969 4.101562 -4.292969 Z M 4.101562 -4.292969 "/></g></g></g></svg>