<svg xmlns="http://www.w3.org/2000/svg" xmlns:xlink="http://www.w3.org/1999/xlink" width="1080" zoomAndPan="magnify" viewBox="0 0 810 809.999993" height="1080" preserveAspectRatio="xMidYMid meet" version="1.0"><defs><clipPath id="id1"><path d="M 39.179688 27 L 735 27 L 735 731 L 39.179688 731 Z M 39.179688 27 " clip-rule="nonzero"/></clipPath><clipPath id="id2"><path d="M 90 19.972656 L 771.179688 19.972656 L 771.179688 788 L 90 788 Z M 90 19.972656 " clip-rule="nonzero"/></clipPath><clipPath id="id3"><path d="M 67 39 L 724 39 L 724 790.214844 L 67 790.214844 Z M 67 39 " clip-rule="nonzero"/></clipPath></defs><rect x="-81" width="972" fill="#ffffff" y="-80.999999" height="971.999992" fill-opacity="1"/><rect x="-81" width="972" fill="#ffffff" y="-80.999999" height="971.999992" fill-opacity="1"/><rect x="-81" width="972" fill="#ffffff" y="-80.999999" height="971.999992" fill-opacity="1"/><rect x="-81" width="972" fill="#ffffff" y="-80.999999" height="971.999992" fill-opacity="1"/><g clip-path="url(#id1)"><path fill="#d76b73" d="M 616.15625 120.003906 L 617.769531 120.003906 L 617.769531 121.160156 C 617.234375 120.769531 616.691406 120.394531 616.15625 120.003906 Z M 627.953125 128.800781 L 631.101562 128.800781 L 631.101562 120.003906 L 639.90625 120.003906 L 639.90625 106.675781 L 631.101562 106.675781 L 631.101562 97.878906 L 617.769531 97.878906 L 617.769531 106.675781 L 608.96875 106.675781 L 608.96875 114.964844 C 527.167969 58.863281 418.550781 27.277344 323.835938 27.277344 C 143.503906 27.277344 39.179688 223.730469 39.179688 404.003906 C 39.179688 584.269531 289.554688 730.410156 469.886719 730.410156 C 650.210938 730.410156 734.941406 502.257812 734.941406 321.992188 C 734.941406 243.933594 691.660156 178.230469 627.953125 128.800781 " fill-opacity="1" fill-rule="nonzero"/></g><path fill="#d1edf1" d="M 460.238281 193.554688 C 460.789062 196.640625 461.863281 199.726562 463.84375 202.207031 C 463.960938 202.351562 464.171875 202.390625 464.339844 202.292969 C 464.523438 202.179688 464.578125 201.941406 464.46875 201.765625 C 462.921875 199.191406 462.097656 196.285156 461.71875 193.328125 C 461.574219 191.855469 461.402344 190.335938 461.460938 188.875 C 461.457031 187.457031 461.84375 185.996094 462.210938 184.570312 C 463.003906 181.695312 464.207031 178.898438 465.449219 176.132812 C 466.71875 173.371094 468.109375 170.648438 469.535156 167.949219 C 469.617188 167.8125 469.574219 167.625 469.445312 167.527344 C 469.296875 167.429688 469.09375 167.460938 468.992188 167.605469 C 467.1875 170.117188 465.613281 172.761719 464.171875 175.5 C 462.738281 178.242188 461.507812 181.105469 460.589844 184.113281 C 460.210938 185.648438 459.820312 187.195312 459.839844 188.851562 C 459.828125 190.453125 459.96875 192 460.238281 193.554688 Z M 472.480469 206.773438 C 471.453125 206.636719 470.460938 206.332031 469.410156 206.074219 L 469.382812 206.066406 C 469.257812 206.035156 469.121094 206.085938 469.046875 206.191406 C 468.941406 206.34375 468.972656 206.550781 469.121094 206.648438 C 470.03125 207.304688 471.050781 207.839844 472.140625 208.164062 C 473.226562 208.546875 474.382812 208.679688 475.535156 208.707031 C 476.679688 208.710938 477.828125 208.558594 478.925781 208.214844 C 480.015625 207.871094 481.054688 207.421875 481.988281 206.695312 C 482.105469 206.597656 482.167969 206.4375 482.113281 206.277344 C 482.054688 206.074219 481.84375 205.960938 481.636719 206.019531 L 481.597656 206.035156 C 480.617188 206.332031 479.585938 206.597656 478.574219 206.753906 C 477.5625 206.914062 476.546875 207.027344 475.527344 207.011719 C 474.515625 207.027344 473.496094 206.945312 472.480469 206.773438 Z M 456.660156 187.914062 C 456.660156 174.210938 476.261719 152.261719 476.261719 152.261719 C 476.261719 152.261719 495.863281 174.210938 495.863281 187.914062 C 495.863281 201.625 487.085938 212.738281 476.261719 212.738281 C 465.4375 212.738281 456.660156 201.625 456.660156 187.914062 Z M 527.285156 138.816406 C 528.613281 136.570312 530.679688 134.671875 533.050781 133.488281 L 533.085938 133.46875 C 533.257812 133.382812 533.34375 133.179688 533.269531 132.992188 C 533.199219 132.800781 532.980469 132.695312 532.78125 132.769531 C 530.070312 133.78125 527.714844 135.636719 526.113281 138.089844 C 524.496094 140.5625 523.800781 143.523438 524.039062 146.503906 C 524.390625 149.527344 525.855469 152.050781 527.332031 154.445312 C 528.890625 156.792969 530.65625 158.972656 532.675781 160.929688 C 532.789062 161.035156 532.960938 161.054688 533.089844 160.964844 C 533.238281 160.859375 533.269531 160.652344 533.164062 160.507812 L 533.15625 160.5 C 531.542969 158.273438 529.984375 156.003906 528.628906 153.644531 C 527.257812 151.316406 526.054688 148.820312 525.664062 146.3125 C 525.433594 143.789062 525.984375 141.066406 527.285156 138.816406 Z M 535.730469 163.304688 C 536.039062 163.9375 536.4375 164.507812 536.839844 165.054688 C 537.238281 165.617188 537.6875 166.121094 538.144531 166.621094 C 538.613281 167.117188 539.082031 167.601562 539.605469 168.035156 C 540.128906 168.484375 540.65625 168.914062 541.273438 169.273438 C 541.382812 169.339844 541.53125 169.34375 541.65625 169.28125 C 541.847656 169.179688 541.925781 168.941406 541.828125 168.742188 C 541.507812 168.109375 541.105469 167.5625 540.695312 167.011719 C 540.292969 166.464844 539.835938 165.960938 539.375 165.464844 C 538.890625 164.984375 538.414062 164.5 537.878906 164.078125 C 537.351562 163.640625 536.816406 163.21875 536.199219 162.859375 C 536.105469 162.808594 535.988281 162.800781 535.882812 162.855469 C 535.71875 162.933594 535.644531 163.136719 535.730469 163.304688 Z M 521.894531 137.050781 C 536.6875 112.363281 549.933594 137.050781 549.933594 137.050781 C 549.933594 137.050781 563.1875 112.363281 577.972656 137.050781 C 587.144531 152.355469 563.542969 173.015625 553.863281 180.582031 C 551.5 182.421875 548.375 182.421875 546.011719 180.582031 C 536.332031 173.015625 512.730469 152.355469 521.894531 137.050781 Z M 610.660156 118.3125 L 619.460938 118.3125 L 619.460938 127.109375 L 629.40625 127.109375 L 629.40625 118.3125 L 638.214844 118.3125 L 638.214844 108.367188 L 629.40625 108.367188 L 629.40625 99.570312 L 619.460938 99.570312 L 619.460938 108.367188 L 610.660156 108.367188 Z M 596.316406 113.339844 C 596.316406 97.910156 608.828125 85.398438 624.269531 85.398438 C 639.703125 85.398438 652.222656 97.910156 652.222656 113.339844 C 652.222656 128.769531 639.703125 141.285156 624.269531 141.285156 C 608.828125 141.285156 596.316406 128.769531 596.316406 113.339844 Z M 668.183594 488.703125 C 667.515625 490.09375 668.113281 491.757812 669.5 492.425781 C 670.890625 493.085938 672.5625 492.5 673.222656 491.109375 L 680.214844 476.46875 L 675.179688 474.070312 Z M 573.402344 395.085938 L 655.222656 395.085938 L 655.222656 390.007812 L 573.402344 390.007812 Z M 560.476562 387.640625 C 557.769531 387.640625 555.570312 389.84375 555.570312 392.546875 C 555.570312 395.25 557.769531 397.453125 560.476562 397.453125 C 563.179688 397.453125 565.382812 395.25 565.382812 392.546875 C 565.382812 389.84375 563.179688 387.640625 560.476562 387.640625 Z M 673.132812 392.621094 C 673.132812 389.914062 670.933594 387.714844 668.222656 387.714844 C 665.519531 387.714844 663.316406 389.914062 663.316406 392.621094 C 663.316406 395.324219 665.519531 397.523438 668.222656 397.523438 C 670.933594 397.523438 673.132812 395.324219 673.132812 392.621094 Z M 555.421875 284.761719 C 555.421875 287.464844 557.625 289.664062 560.328125 289.664062 C 563.035156 289.664062 565.238281 287.464844 565.238281 284.761719 C 565.238281 282.050781 563.035156 279.847656 560.328125 279.847656 C 557.625 279.847656 555.421875 282.050781 555.421875 284.761719 Z M 668.296875 289.664062 C 671.007812 289.664062 673.203125 287.464844 673.203125 284.761719 C 673.203125 282.050781 671.007812 279.847656 668.296875 279.847656 C 665.59375 279.847656 663.390625 282.050781 663.390625 284.761719 C 663.390625 287.464844 665.59375 289.664062 668.296875 289.664062 Z M 655.097656 311.519531 L 649.945312 287.300781 L 643.589844 287.300781 L 641.375 297.855469 C 646.804688 301.457031 651.472656 306.105469 655.097656 311.519531 Z M 614.316406 289.691406 C 615.347656 289.691406 616.375 289.730469 617.398438 289.796875 L 616.824219 287.300781 L 584.96875 287.300781 L 581.167969 302.617188 C 589.902344 294.597656 601.539062 289.691406 614.316406 289.691406 Z M 586.226562 282.222656 L 615.652344 282.222656 L 603.40625 228.902344 C 603.140625 227.75 602.1875 227.332031 601.449219 227.328125 C 600.726562 227.375 599.75 227.71875 599.464844 228.867188 Z M 618.554688 287.300781 L 619.164062 289.929688 C 626.683594 290.671875 633.710938 293.117188 639.847656 296.878906 L 641.867188 287.300781 Z M 644.65625 282.222656 L 648.867188 282.222656 L 648.75 281.640625 C 648.5 280.457031 647.519531 280.035156 646.765625 280.035156 L 646.757812 280.035156 C 646.003906 280.039062 645.027344 280.457031 644.78125 281.648438 Z M 733.671875 299.269531 L 714.851562 246.003906 C 714.488281 244.972656 713.589844 244.628906 712.875 244.652344 C 712.152344 244.679688 711.28125 245.082031 710.988281 246.140625 L 675.578125 374.058594 C 675.109375 375.742188 673.625 376.867188 671.875 376.785156 C 671.511719 376.773438 671.167969 376.699219 670.835938 376.59375 L 670.835938 379.621094 L 665.757812 379.621094 L 665.757812 361.65625 L 662.648438 347.027344 C 658.6875 370.125 638.53125 387.761719 614.316406 387.761719 C 593.050781 387.761719 574.90625 374.15625 568.121094 355.203125 L 565.210938 366.917969 C 564.914062 368.132812 564.085938 369.019531 563.015625 369.449219 L 563.015625 379.621094 L 557.9375 379.621094 L 557.9375 366.652344 L 545.132812 295.476562 C 544.949219 294.433594 544.148438 293.941406 543.460938 293.832031 C 542.773438 293.722656 541.859375 293.941406 541.359375 294.875 L 509.046875 354.847656 C 508.332031 356.175781 506.953125 356.921875 505.449219 356.78125 C 503.941406 356.652344 502.710938 355.6875 502.234375 354.25 L 474.867188 271.816406 C 474.503906 270.71875 473.570312 270.390625 472.808594 270.429688 C 472.054688 270.480469 471.167969 270.9375 470.949219 272.074219 L 453.960938 360.675781 C 453.632812 362.390625 452.242188 363.597656 450.503906 363.691406 C 448.765625 363.777344 447.257812 362.726562 446.75 361.058594 L 408.929688 236.980469 C 408.613281 235.949219 407.746094 235.5625 407.039062 235.542969 C 406.332031 235.558594 405.445312 235.867188 405.082031 236.886719 L 359.941406 362.917969 C 359.355469 364.558594 357.800781 365.535156 356.058594 365.363281 C 354.328125 365.183594 353 363.910156 352.753906 362.191406 L 323.65625 158.1875 C 323.472656 156.878906 322.453125 156.449219 321.613281 156.441406 C 320.789062 156.460938 319.769531 156.945312 319.636719 158.265625 L 295.28125 392.683594 C 295.082031 394.574219 293.621094 395.945312 291.722656 396.023438 C 289.820312 396.070312 288.257812 394.839844 287.921875 392.96875 L 263.625 259.652344 C 263.394531 258.402344 262.355469 258.007812 261.601562 257.988281 C 260.808594 258 259.816406 258.457031 259.625 259.710938 L 244.589844 358.085938 C 244.269531 360.160156 242.605469 361.160156 241.097656 361.238281 C 239.589844 361.304688 237.824219 360.472656 237.308594 358.441406 L 198.148438 204.878906 C 197.835938 203.65625 196.8125 203.296875 196.015625 203.355469 C 195.230469 203.421875 194.277344 203.9375 194.160156 205.195312 L 176.265625 403.625 C 176.058594 405.878906 174.269531 406.957031 172.6875 407.011719 C 172.640625 407.011719 172.601562 407.015625 172.5625 407.015625 C 171.007812 407.015625 169.230469 406.046875 168.886719 403.878906 L 144.914062 252.148438 C 144.722656 250.933594 143.75 250.464844 142.976562 250.445312 C 142.1875 250.417969 141.203125 250.820312 140.933594 252.03125 L 113.886719 373.242188 C 113.421875 375.304688 111.683594 376.199219 110.15625 376.152344 C 108.636719 376.113281 106.941406 375.140625 106.585938 373.058594 L 90.144531 275.96875 C 89.941406 274.75 88.960938 274.296875 88.1875 274.28125 C 87.429688 274.25 86.421875 274.671875 86.164062 275.882812 L 73.390625 335.210938 C 73.039062 336.84375 71.738281 337.996094 70.070312 338.140625 C 68.398438 338.28125 66.921875 337.367188 66.300781 335.8125 L 51.023438 297.664062 C 51.242188 296.691406 51.453125 295.714844 51.679688 294.734375 L 67.875 335.1875 C 68.285156 336.210938 69.195312 336.515625 69.925781 336.449219 C 70.644531 336.390625 71.503906 335.941406 71.738281 334.855469 L 84.511719 275.523438 C 84.957031 273.449219 86.703125 272.5625 88.230469 272.589844 C 89.757812 272.625 91.460938 273.59375 91.8125 275.683594 L 108.257812 372.773438 C 108.464844 373.992188 109.4375 374.441406 110.203125 374.460938 C 110.976562 374.464844 111.96875 374.078125 112.234375 372.875 L 139.28125 251.660156 C 139.742188 249.585938 141.519531 248.707031 143.027344 248.753906 C 144.5625 248.796875 146.257812 249.789062 146.585938 251.886719 L 170.558594 403.613281 C 170.761719 404.914062 171.808594 405.351562 172.628906 405.316406 C 173.453125 405.292969 174.460938 404.796875 174.578125 403.472656 L 192.472656 205.042969 C 192.671875 202.886719 194.332031 201.796875 195.886719 201.671875 C 197.433594 201.539062 199.25 202.359375 199.785156 204.460938 L 238.949219 358.027344 C 239.25 359.210938 240.242188 359.578125 241.011719 359.546875 C 241.777344 359.507812 242.730469 359.039062 242.914062 357.828125 L 257.953125 259.453125 C 258.285156 257.304688 260.007812 256.320312 261.578125 256.296875 C 263.128906 256.320312 264.902344 257.207031 265.285156 259.347656 L 289.582031 392.664062 C 289.820312 393.941406 290.84375 394.34375 291.660156 394.332031 C 292.464844 394.296875 293.464844 393.800781 293.597656 392.511719 L 317.949219 158.085938 C 318.183594 155.839844 319.996094 154.78125 321.582031 154.753906 C 323.167969 154.730469 325.011719 155.707031 325.335938 157.949219 L 354.425781 361.953125 C 354.59375 363.109375 355.472656 363.605469 356.230469 363.679688 C 356.992188 363.765625 357.953125 363.453125 358.347656 362.347656 L 403.488281 236.316406 C 404.035156 234.777344 405.445312 233.8125 407.078125 233.851562 C 408.710938 233.890625 410.074219 234.921875 410.550781 236.488281 L 448.367188 360.570312 C 448.707031 361.6875 449.644531 362.023438 450.410156 362.003906 C 451.179688 361.964844 452.078125 361.507812 452.296875 360.359375 L 469.292969 271.75 C 469.617188 270.066406 470.984375 268.855469 472.695312 268.742188 C 474.417969 268.617188 475.929688 269.648438 476.472656 271.28125 L 503.851562 353.722656 C 504.109375 354.507812 504.761719 355.023438 505.59375 355.097656 C 506.429688 355.164062 507.164062 354.78125 507.558594 354.039062 L 539.863281 294.066406 C 540.625 292.660156 542.136719 291.914062 543.726562 292.164062 C 545.3125 292.414062 546.515625 293.597656 546.800781 295.179688 L 557.9375 357.085938 L 557.9375 297.828125 L 563.015625 297.828125 L 563.015625 367.460938 C 563.253906 367.222656 563.464844 366.929688 563.570312 366.507812 L 567.140625 352.121094 C 565.925781 347.867188 565.261719 343.371094 565.261719 338.722656 C 565.261719 325.613281 570.449219 313.703125 578.859375 304.894531 L 583.222656 287.300781 L 573.402344 287.300781 L 573.402344 282.222656 L 584.480469 282.222656 L 597.816406 228.457031 C 598.242188 226.753906 599.761719 225.621094 601.460938 225.636719 C 603.21875 225.648438 604.660156 226.8125 605.058594 228.523438 L 617.390625 282.222656 L 642.929688 282.222656 L 643.121094 281.304688 C 643.550781 279.261719 645.257812 278.347656 646.757812 278.339844 C 646.757812 278.339844 646.757812 278.339844 646.765625 278.339844 C 648.265625 278.339844 649.972656 279.253906 650.402344 281.289062 L 650.601562 282.222656 L 655.222656 282.222656 L 655.222656 287.300781 L 651.679688 287.300781 L 657.800781 316.082031 C 661.347656 322.855469 663.363281 330.558594 663.363281 338.722656 C 663.363281 339.746094 663.324219 340.757812 663.265625 341.769531 L 665.757812 353.515625 L 665.757812 297.828125 L 670.835938 297.828125 L 670.835938 374.746094 C 671.179688 374.96875 671.5625 375.082031 671.925781 375.09375 C 672.707031 375.140625 673.632812 374.738281 673.945312 373.605469 L 709.355469 245.683594 C 709.800781 244.089844 711.15625 243.019531 712.8125 242.960938 C 714.472656 242.886719 715.894531 243.878906 716.453125 245.441406 L 732.625 291.230469 C 733.023438 293.894531 733.375 296.574219 733.671875 299.269531 Z M 763.441406 318.042969 L 748.34375 349.644531 C 746.765625 352.960938 743.367188 355.097656 739.6875 355.097656 C 738.253906 355.097656 736.863281 354.785156 735.5625 354.164062 C 733.246094 353.0625 731.507812 351.125 730.65625 348.710938 C 729.796875 346.292969 729.933594 343.695312 731.039062 341.378906 L 746.144531 309.78125 C 747.722656 306.464844 751.121094 304.328125 754.800781 304.328125 C 756.234375 304.328125 757.621094 304.636719 758.925781 305.261719 C 763.691406 307.539062 765.722656 313.273438 763.441406 318.042969 " fill-opacity="1" fill-rule="nonzero"/><g clip-path="url(#id2)"><path fill="#5ec9cc" d="M 465.117188 65.53125 C 459.582031 66.359375 443.910156 71.222656 443.910156 71.222656 C 443.910156 71.222656 459.511719 61.402344 463.636719 56.753906 C 467.769531 52.105469 484.59375 45.238281 483.570312 40.753906 C 482.542969 36.265625 472.902344 38.402344 464.6875 43.546875 C 456.480469 48.683594 436.671875 53.738281 436.671875 53.738281 C 436.671875 53.738281 436.492188 50.875 446.292969 44.988281 C 456.09375 39.097656 471.746094 32.234375 467.765625 27.777344 C 462.253906 21.617188 423.523438 44.914062 423.523438 44.914062 C 423.523438 44.914062 442.199219 20.019531 433.617188 19.972656 C 425.039062 19.925781 421.148438 32.292969 413.9375 37.769531 C 406.722656 43.242188 391.921875 62.386719 391.921875 62.386719 L 333.234375 82.375 L 357.746094 130.542969 C 357.746094 130.542969 415.570312 92.324219 419.664062 93.394531 C 423.753906 94.46875 442.21875 99.742188 447.46875 98.347656 C 452.71875 96.945312 465.132812 96.121094 467.175781 94.296875 C 469.21875 92.464844 463.988281 88.035156 458.207031 87.203125 C 450.101562 86.046875 440.292969 86.882812 441.1875 84.835938 C 442.078125 82.792969 459.902344 76.65625 466.785156 73.734375 C 473.667969 70.820312 486.082031 65.902344 484.496094 62.875 C 481.996094 58.128906 470.652344 64.707031 465.117188 65.53125 Z M 758.199219 306.785156 C 754.257812 304.910156 749.546875 306.574219 747.671875 310.507812 L 732.566406 342.113281 C 730.6875 346.046875 732.355469 350.761719 736.289062 352.636719 C 740.222656 354.515625 744.9375 352.851562 746.816406 348.917969 L 761.914062 317.3125 C 763.792969 313.382812 762.132812 308.671875 758.199219 306.785156 Z M 768.375 325.304688 L 723.527344 394.207031 L 711.96875 388.6875 L 737.386719 310.507812 C 740.628906 300.558594 751.882812 295.726562 761.324219 300.234375 C 770.769531 304.746094 774.082031 316.53125 768.375 325.304688 Z M 590.582031 651.195312 C 599.683594 651.195312 607.0625 642.644531 607.0625 632.101562 C 607.0625 623.613281 602.28125 608.230469 595.660156 602.558594 L 595.660156 588.433594 C 595.660156 585.628906 593.386719 583.355469 590.582031 583.355469 C 587.78125 583.355469 585.503906 585.628906 585.503906 588.433594 L 585.503906 602.558594 C 578.890625 608.230469 574.105469 623.613281 574.105469 632.101562 C 574.105469 642.644531 581.484375 651.195312 590.582031 651.195312 Z M 511.726562 787.675781 L 675.886719 787.675781 L 675.886719 672.738281 L 511.726562 672.738281 Z M 134.578125 376.828125 C 146.472656 366.03125 156.75 356.710938 153.40625 346.398438 C 151.089844 339.265625 142.15625 329.945312 126.082031 317.914062 C 122.878906 315.511719 121.234375 311.835938 121.5625 307.832031 C 121.894531 303.851562 124.203125 300.375 127.753906 298.542969 C 134.96875 294.800781 139.445312 287.4375 139.445312 279.3125 L 139.445312 222.449219 C 143.480469 221.917969 147.484375 221.039062 151.421875 219.777344 C 157.960938 217.675781 163.847656 214.265625 168.910156 209.636719 C 170.980469 207.746094 171.125 204.535156 169.234375 202.464844 C 167.34375 200.394531 164.128906 200.25 162.0625 202.140625 C 158.078125 205.777344 153.449219 208.460938 148.3125 210.105469 C 136.820312 213.800781 124.664062 213.800781 113.164062 210.105469 C 108.234375 208.519531 103.761719 205.980469 99.878906 202.550781 C 97.777344 200.691406 94.570312 200.890625 92.710938 202.992188 C 90.855469 205.089844 91.050781 208.300781 93.15625 210.160156 C 98.089844 214.523438 103.78125 217.761719 110.0625 219.777344 C 116.359375 221.792969 122.820312 222.851562 129.289062 222.996094 L 129.289062 279.3125 C 129.289062 283.628906 126.90625 287.542969 123.078125 289.527344 C 116.414062 292.976562 112.0625 299.507812 111.441406 307 C 110.824219 314.449219 114.019531 321.5625 119.988281 326.035156 C 139.21875 340.441406 143.007812 347.265625 143.742188 349.53125 C 145.066406 353.601562 135.464844 362.308594 127.746094 369.308594 C 118.964844 377.277344 109.304688 386.0625 103.582031 396.253906 C 97.949219 396.722656 93.519531 401.4375 93.519531 407.195312 C 93.519531 413.265625 98.445312 418.1875 104.515625 418.1875 C 110.585938 418.1875 115.507812 413.265625 115.507812 407.195312 C 115.507812 404.550781 114.574219 402.125 113.011719 400.226562 C 118.046875 391.832031 126.707031 383.964844 134.578125 376.828125 Z M 151.757812 65.960938 L 167.066406 64.890625 C 169.433594 64.726562 171.273438 62.753906 171.273438 60.390625 L 171.273438 57.492188 C 171.273438 55.121094 169.433594 53.152344 167.066406 52.984375 L 151.757812 51.921875 C 149.144531 51.734375 146.925781 53.804688 146.925781 56.421875 L 146.925781 61.453125 C 146.925781 64.070312 149.144531 66.140625 151.757812 65.960938 Z M 94.417969 64.890625 L 109.726562 65.960938 C 112.332031 66.140625 114.546875 64.085938 114.554688 61.480469 L 114.621094 61.480469 L 114.621094 56.402344 L 114.554688 56.402344 C 114.542969 53.792969 112.332031 51.734375 109.726562 51.921875 L 94.417969 52.984375 C 92.050781 53.152344 90.210938 55.121094 90.210938 57.492188 L 90.210938 60.390625 C 90.210938 61.316406 90.496094 62.167969 90.980469 62.886719 C 91.734375 64.011719 92.96875 64.792969 94.417969 64.890625 Z M 314.769531 135.269531 L 311.878906 134.238281 C 305.855469 132.101562 299.195312 132.339844 293.410156 135.070312 C 286.433594 138.363281 280.601562 142.835938 276.039062 147.160156 C 268.414062 154.371094 266.445312 165.75 270.921875 175.234375 C 285.867188 153.316406 314.769531 135.269531 314.769531 135.269531 Z M 404.546875 594.660156 C 399.683594 616.03125 399.242188 638.871094 399.242188 638.871094 L 413.941406 724.796875 C 413.941406 724.796875 333.085938 720.328125 218.9375 654.035156 C 218.9375 654.035156 219.796875 647.070312 228.203125 637.265625 C 232.765625 600.695312 233.425781 568.613281 232.871094 545.046875 L 218.9375 564.898438 L 130.742188 518.089844 L 212.09375 370.785156 C 213.175781 368.492188 214.414062 366.269531 215.769531 364.121094 C 225.292969 349.09375 241.25 337.898438 260.78125 334.605469 C 276.390625 331.972656 291.253906 330.566406 302.363281 331.429688 C 350.253906 335.1875 386.941406 339.980469 399.871094 346.210938 C 405.882812 349.109375 412.414062 356.664062 418.40625 366.976562 L 418.40625 366.964844 L 418.492188 367.128906 C 419.589844 369.011719 420.652344 370.996094 421.707031 373.050781 L 483.03125 486.3125 L 424.523438 516.460938 C 417.652344 542.667969 409.828125 571.417969 404.546875 594.660156 " fill-opacity="1" fill-rule="nonzero"/></g><path fill="#f9d291" d="M 337.511719 430.703125 C 335.527344 428.71875 330.886719 426.890625 328.398438 432.402344 L 321.390625 431.25 L 296.417969 442.445312 C 295.25 442.9375 294.257812 443.777344 293.582031 444.855469 L 277.023438 470.996094 L 172.058594 539.171875 C 171.820312 539.328125 171.617188 539.507812 171.390625 539.664062 L 156.015625 531.5 L 150.679688 542.382812 C 142.53125 559.007812 148.835938 579.105469 165.015625 588.101562 C 168.535156 590.058594 172.265625 591.308594 176.039062 591.957031 C 187.148438 596.988281 200.710938 594.984375 209.882812 585.789062 L 290.59375 504.859375 L 303.355469 498.519531 C 312.324219 494.066406 318.101562 485.042969 318.402344 475.039062 L 323.472656 478.753906 C 326.191406 480.746094 330.058594 479.667969 331.363281 476.5625 C 331.363281 476.5625 338.722656 476.058594 333.78125 467.476562 L 332.398438 464.535156 L 336.40625 466.996094 C 338.285156 468.144531 340.660156 466.59375 340.363281 464.410156 L 338.722656 452.511719 C 340.433594 452.332031 342.152344 451.519531 341.796875 448.855469 C 341.121094 443.785156 339.542969 432.734375 337.511719 430.703125 Z M 524.546875 469.757812 C 526.195312 465.363281 525.023438 452.320312 525.023438 452.320312 L 516.273438 464.941406 C 516.273438 464.941406 480.765625 473.96875 477.464844 477.269531 C 474.164062 480.558594 473.066406 485.328125 473.066406 485.328125 C 473.066406 485.328125 457.308594 491.917969 457.308594 496.675781 C 457.308594 501.445312 459.140625 503.273438 462.078125 503.273438 C 465.007812 503.273438 467.570312 503.273438 467.570312 503.273438 C 467.570312 503.273438 464.640625 509.019531 467.207031 511.457031 C 468.863281 513.03125 466.863281 515.417969 467.605469 517.40625 L 420.203125 572.257812 C 409.75 584.347656 412.75 602.941406 426.472656 611.132812 C 438.984375 618.601562 455.199219 614.199219 462.210938 601.429688 L 518.859375 498.21875 L 518.351562 497.964844 C 519.527344 497.210938 520.699219 496.398438 521.25 495.210938 C 522.53125 492.464844 522.894531 486.238281 524.546875 484.042969 C 526.195312 481.84375 522.894531 474.15625 524.546875 469.757812 Z M 410.53125 275.222656 C 407.582031 285.335938 391.484375 319.527344 373.996094 322.042969 C 369.300781 322.726562 364.617188 322.519531 360.015625 321.640625 L 360.648438 336.15625 L 370.878906 340.839844 L 341.492188 410.773438 L 289.246094 333.210938 L 301.207031 330.253906 C 304.125 314.410156 305.082031 298.277344 304.078125 282.222656 C 302.46875 280.378906 300.996094 278.632812 299.671875 277.039062 C 297.582031 274.519531 295.382812 271.386719 293.085938 267.585938 C 285.527344 259.488281 277.296875 245.089844 277.945312 234.894531 C 277.117188 232.695312 276.285156 230.441406 275.4375 228.066406 C 262.753906 192.285156 284.304688 153.078125 321.496094 145.433594 C 356.074219 138.335938 394.164062 152.945312 404.835938 160.882812 C 424.226562 175.308594 413.472656 265.113281 410.53125 275.222656 " fill-opacity="1" fill-rule="nonzero"/><g clip-path="url(#id3)"><path fill="#30526a" d="M 466.785156 73.734375 C 459.902344 76.65625 442.078125 82.792969 441.1875 84.835938 C 440.355469 86.746094 448.8125 86.144531 456.523438 86.996094 C 456.4375 86.917969 456.394531 86.863281 456.394531 86.863281 C 456.394531 86.863281 475.0625 78.527344 484.6875 77.453125 C 494.3125 76.375 503.195312 72.0625 501.210938 67.910156 C 499.570312 64.480469 487.410156 67.332031 479.765625 67.832031 C 475.898438 69.972656 470.527344 72.15625 466.785156 73.734375 Z M 448.515625 113.5 C 457.566406 113.308594 468.300781 120.585938 474.992188 115.21875 C 481.691406 109.851562 451.582031 101.949219 451.582031 101.949219 C 451.582031 101.949219 496.410156 96.140625 496.894531 87.890625 C 497.242188 81.925781 480.71875 86.277344 469.378906 87.75 C 466.128906 88.167969 463.695312 88.273438 461.851562 88.207031 C 465.925781 89.859375 468.769531 92.867188 467.175781 94.296875 C 465.132812 96.121094 452.71875 96.945312 447.46875 98.347656 C 442.21875 99.742188 423.753906 94.46875 419.664062 93.394531 C 416.410156 92.550781 379.351562 116.421875 364.179688 126.324219 L 415.960938 107.886719 C 415.960938 107.886719 439.453125 113.695312 448.515625 113.5 Z M 452.46875 47.265625 C 454.761719 44.839844 456.179688 41.609375 456.460938 39.253906 C 453.023438 41.191406 449.367188 43.136719 446.292969 44.988281 C 436.492188 50.875 436.671875 53.738281 436.671875 53.738281 C 436.671875 53.738281 442.933594 52.140625 449.875 49.824219 C 450.769531 48.992188 451.648438 48.140625 452.46875 47.265625 Z M 354.9375 74.984375 C 349.96875 75.441406 346.824219 75.71875 346.824219 75.71875 L 347.207031 77.617188 Z M 453.242188 68.460938 C 451.972656 68.585938 451.199219 68.664062 451.199219 68.664062 C 451.199219 68.664062 466.5 62.75 471.355469 59.960938 C 476.203125 57.167969 489.183594 55.277344 488.183594 50.003906 C 487.636719 47.101562 478.027344 49.582031 470.773438 51.597656 C 467.742188 53.441406 465 55.21875 463.636719 56.753906 C 459.511719 61.402344 443.910156 71.222656 443.910156 71.222656 C 443.910156 71.222656 448.296875 69.863281 453.242188 68.460938 Z M 711.96875 388.6875 L 675.179688 474.070312 L 680.214844 476.46875 L 723.527344 394.207031 Z M 668.222656 670.199219 C 666.824219 670.199219 665.683594 671.335938 665.683594 672.738281 L 665.683594 787.675781 C 665.683594 789.078125 666.824219 790.214844 668.222656 790.214844 C 669.625 790.214844 670.761719 789.078125 670.761719 787.675781 L 670.761719 672.738281 C 670.761719 671.335938 669.625 670.199219 668.222656 670.199219 Z M 541.171875 670.199219 C 539.765625 670.199219 538.632812 671.335938 538.632812 672.738281 L 538.632812 787.675781 C 538.632812 789.078125 539.765625 790.214844 541.171875 790.214844 C 542.574219 790.214844 543.710938 789.078125 543.710938 787.675781 L 543.710938 672.738281 C 543.710938 671.335938 542.574219 670.199219 541.171875 670.199219 Z M 653.53125 393.394531 L 653.53125 391.699219 L 575.097656 391.699219 L 575.097656 393.394531 Z M 577.410156 359.96875 L 573.230469 362.261719 C 575.089844 365.496094 577.316406 368.492188 579.863281 371.1875 L 583.300781 367.894531 L 583.882812 368.503906 L 580.445312 371.800781 C 583.488281 374.917969 586.964844 377.613281 590.769531 379.792969 L 593.0625 375.617188 L 594.550781 376.4375 L 592.25 380.613281 C 595.503906 382.332031 598.980469 383.6875 602.632812 384.613281 L 603.769531 379.964844 L 604.597656 380.164062 L 603.457031 384.804688 C 606.679688 385.558594 610.023438 385.988281 613.46875 386.046875 L 613.46875 381.289062 L 615.164062 381.289062 L 615.164062 386.046875 C 618.957031 385.980469 622.65625 385.480469 626.1875 384.566406 L 624.945312 379.945312 L 625.761719 379.722656 L 627 384.335938 C 630.285156 383.425781 633.421875 382.175781 636.378906 380.613281 L 634.082031 376.4375 L 635.5625 375.617188 L 637.859375 379.792969 C 641.097656 377.9375 644.09375 375.710938 646.792969 373.164062 L 643.492188 369.726562 L 644.101562 369.136719 L 647.402344 372.582031 C 650.523438 369.535156 653.214844 366.0625 655.402344 362.261719 L 651.222656 359.96875 L 652.035156 358.480469 L 656.214844 360.78125 C 657.933594 357.53125 659.289062 354.054688 660.214844 350.402344 L 655.566406 349.261719 L 655.773438 348.441406 L 660.40625 349.578125 C 661.160156 346.359375 661.589844 343.007812 661.652344 339.570312 L 656.890625 339.570312 L 656.890625 337.875 L 661.652344 337.875 C 661.585938 334.082031 661.082031 330.386719 660.167969 326.855469 L 655.546875 328.09375 L 655.328125 327.28125 L 659.9375 326.042969 C 659.027344 322.757812 657.777344 319.617188 656.214844 316.667969 L 652.035156 318.964844 L 651.222656 317.484375 L 655.402344 315.1875 C 653.539062 311.949219 651.308594 308.957031 648.769531 306.257812 L 645.332031 309.558594 L 644.742188 308.949219 L 648.179688 305.648438 C 645.140625 302.53125 641.667969 299.839844 637.859375 297.65625 L 635.5625 301.828125 L 634.082031 301.015625 L 636.378906 296.832031 C 633.125 295.121094 629.644531 293.765625 625.996094 292.839844 L 624.859375 297.484375 L 624.03125 297.28125 L 625.167969 292.648438 C 621.949219 291.886719 618.601562 291.464844 615.164062 291.402344 L 615.164062 296.15625 L 613.46875 296.15625 L 613.46875 291.402344 C 609.667969 291.46875 605.972656 291.972656 602.441406 292.886719 L 603.683594 297.503906 L 602.863281 297.730469 L 601.625 293.117188 C 598.347656 294.023438 595.207031 295.277344 592.25 296.832031 L 594.550781 301.015625 L 593.0625 301.828125 L 590.769531 297.65625 C 586.449219 300.128906 582.554688 303.261719 579.230469 306.917969 L 582.800781 310.097656 L 582.238281 310.734375 L 578.679688 307.558594 C 576.625 309.90625 574.792969 312.464844 573.230469 315.1875 L 577.410156 317.484375 L 576.589844 318.964844 L 572.410156 316.667969 C 570.691406 319.921875 569.335938 323.398438 568.410156 327.046875 L 573.058594 328.183594 L 572.855469 329.003906 L 568.21875 327.875 C 567.464844 331.09375 567.035156 334.4375 566.976562 337.875 L 571.738281 337.875 L 571.738281 339.570312 L 566.976562 339.570312 C 567.042969 343.371094 567.542969 347.066406 568.457031 350.59375 L 573.078125 349.351562 L 573.304688 350.171875 L 568.6875 351.410156 C 569.601562 354.6875 570.851562 357.828125 572.410156 360.78125 L 576.589844 358.480469 Z M 563.6875 392.546875 C 563.6875 390.773438 562.246094 389.332031 560.476562 389.332031 C 558.695312 389.332031 557.261719 390.773438 557.261719 392.546875 C 557.261719 394.316406 558.695312 395.757812 560.476562 395.757812 C 562.246094 395.757812 563.6875 394.316406 563.6875 392.546875 Z M 559.628906 299.523438 L 559.628906 377.929688 L 561.320312 377.929688 L 561.320312 299.523438 Z M 557.117188 284.761719 C 557.117188 286.53125 558.550781 287.972656 560.328125 287.972656 C 562.101562 287.972656 563.542969 286.53125 563.542969 284.761719 C 563.542969 282.980469 562.101562 281.539062 560.328125 281.539062 C 558.550781 281.539062 557.117188 282.980469 557.117188 284.761719 Z M 575.097656 285.605469 L 653.53125 285.605469 L 653.53125 283.914062 L 575.097656 283.914062 Z M 665.011719 392.621094 C 665.011719 394.390625 666.453125 395.832031 668.222656 395.832031 C 670.003906 395.832031 671.4375 394.390625 671.4375 392.621094 C 671.4375 390.847656 670.003906 389.40625 668.222656 389.40625 C 666.453125 389.40625 665.011719 390.847656 665.011719 392.621094 Z M 667.449219 299.523438 L 667.449219 377.929688 L 669.144531 377.929688 L 669.144531 299.523438 Z M 665.082031 284.761719 C 665.082031 286.53125 666.523438 287.972656 668.296875 287.972656 C 670.074219 287.972656 671.511719 286.53125 671.511719 284.761719 C 671.511719 282.980469 670.074219 281.539062 668.296875 281.539062 C 666.523438 281.539062 665.082031 282.980469 665.082031 284.761719 Z M 648.398438 419.195312 L 631.179688 420.726562 L 649.238281 429.0625 C 650.285156 429.546875 650.871094 430.671875 650.675781 431.808594 C 650.480469 432.9375 649.542969 433.796875 648.398438 433.902344 L 631.179688 435.429688 L 649.238281 443.765625 C 650.285156 444.25 650.871094 445.371094 650.675781 446.507812 C 650.480469 447.640625 649.542969 448.5 648.398438 448.597656 L 631.179688 450.132812 L 649.238281 458.46875 C 650.285156 458.949219 650.871094 460.074219 650.675781 461.210938 C 650.480469 462.339844 649.542969 463.199219 648.398438 463.308594 L 631.179688 464.832031 L 649.238281 473.175781 C 650.285156 473.660156 650.871094 474.777344 650.675781 475.914062 C 650.480469 477.050781 649.542969 477.902344 648.398438 478.007812 L 631.179688 479.535156 L 649.238281 487.878906 C 650.285156 488.359375 650.871094 489.484375 650.675781 490.613281 C 650.480469 491.746094 649.542969 492.605469 648.398438 492.710938 L 631.179688 494.238281 L 649.238281 502.582031 C 650.285156 503.0625 650.871094 504.1875 650.675781 505.316406 C 650.480469 506.453125 649.542969 507.3125 648.398438 507.414062 L 631.179688 508.945312 L 649.238281 517.28125 C 650.285156 517.765625 650.871094 518.890625 650.675781 520.019531 C 650.480469 521.15625 649.542969 522.007812 648.398438 522.113281 L 631.179688 523.648438 L 649.238281 531.984375 C 650.285156 532.46875 650.871094 533.589844 650.675781 534.722656 C 650.480469 535.859375 649.542969 536.71875 648.398438 536.816406 L 631.179688 538.351562 L 638.9375 541.933594 C 639.863281 542.355469 640.402344 543.277344 640.402344 544.234375 L 640.410156 544.234375 L 640.410156 672.738281 L 635.332031 672.738281 L 635.332031 545.859375 L 620.40625 538.972656 C 619.363281 538.488281 618.765625 537.367188 618.964844 536.226562 C 619.164062 535.097656 620.097656 534.238281 621.242188 534.132812 L 638.464844 532.605469 L 620.40625 524.261719 C 620.183594 524.164062 619.992188 524.023438 619.8125 523.875 C 619.785156 523.847656 619.753906 523.820312 619.71875 523.789062 C 619.527344 523.601562 619.363281 523.382812 619.238281 523.152344 C 619.214844 523.113281 619.195312 523.074219 619.183594 523.039062 C 619.066406 522.78125 618.984375 522.511719 618.953125 522.234375 C 618.953125 522.214844 618.9375 522.199219 618.9375 522.1875 C 618.9375 522.140625 618.945312 522.09375 618.9375 522.046875 C 618.9375 521.957031 618.9375 521.863281 618.945312 521.769531 C 618.953125 521.691406 618.964844 521.613281 618.980469 521.527344 C 618.992188 521.445312 619.003906 521.367188 619.023438 521.289062 C 619.050781 521.203125 619.085938 521.117188 619.117188 521.023438 C 619.136719 520.984375 619.144531 520.9375 619.164062 520.898438 C 619.175781 520.871094 619.191406 520.851562 619.210938 520.824219 C 619.25 520.738281 619.296875 520.660156 619.347656 520.585938 C 619.390625 520.523438 619.429688 520.457031 619.476562 520.394531 C 619.527344 520.328125 619.585938 520.269531 619.648438 520.210938 C 619.699219 520.152344 619.753906 520.09375 619.820312 520.039062 C 619.878906 519.984375 619.949219 519.941406 620.015625 519.894531 C 620.082031 519.847656 620.140625 519.800781 620.214844 519.761719 C 620.289062 519.722656 620.359375 519.683594 620.441406 519.648438 C 620.511719 519.617188 620.585938 519.582031 620.664062 519.5625 C 620.738281 519.535156 620.816406 519.515625 620.890625 519.496094 C 620.980469 519.476562 621.066406 519.457031 621.160156 519.449219 C 621.1875 519.445312 621.214844 519.4375 621.242188 519.429688 L 638.464844 517.902344 L 620.40625 509.5625 C 620.183594 509.460938 619.992188 509.324219 619.8125 509.171875 C 619.785156 509.144531 619.753906 509.117188 619.71875 509.085938 C 619.527344 508.898438 619.363281 508.683594 619.238281 508.449219 C 619.214844 508.410156 619.195312 508.378906 619.183594 508.339844 C 619.066406 508.082031 618.984375 507.816406 618.953125 507.53125 C 618.953125 507.519531 618.9375 507.503906 618.9375 507.484375 C 618.9375 507.4375 618.945312 507.394531 618.9375 507.339844 C 618.9375 507.253906 618.9375 507.160156 618.945312 507.070312 C 618.953125 506.984375 618.964844 506.902344 618.980469 506.824219 C 618.992188 506.746094 619.003906 506.664062 619.023438 506.585938 C 619.050781 506.5 619.085938 506.414062 619.117188 506.328125 C 619.136719 506.28125 619.144531 506.234375 619.164062 506.195312 C 619.175781 506.171875 619.191406 506.144531 619.210938 506.125 C 619.25 506.039062 619.296875 505.964844 619.347656 505.886719 C 619.390625 505.820312 619.429688 505.753906 619.476562 505.695312 C 619.527344 505.628906 619.585938 505.570312 619.648438 505.507812 C 619.699219 505.449219 619.753906 505.390625 619.820312 505.335938 C 619.878906 505.285156 619.945312 505.238281 620.011719 505.191406 C 620.078125 505.144531 620.140625 505.097656 620.214844 505.058594 C 620.289062 505.019531 620.359375 504.988281 620.441406 504.945312 C 620.511719 504.921875 620.585938 504.882812 620.664062 504.855469 C 620.738281 504.835938 620.808594 504.816406 620.890625 504.796875 C 620.980469 504.773438 621.066406 504.761719 621.160156 504.75 C 621.1875 504.742188 621.214844 504.734375 621.242188 504.730469 L 638.464844 503.195312 L 620.40625 494.859375 C 620.183594 494.761719 619.992188 494.621094 619.8125 494.46875 C 619.785156 494.4375 619.753906 494.417969 619.71875 494.382812 C 619.527344 494.199219 619.363281 493.980469 619.238281 493.75 C 619.214844 493.707031 619.195312 493.667969 619.183594 493.628906 C 619.066406 493.378906 618.984375 493.105469 618.953125 492.828125 C 618.953125 492.808594 618.9375 492.796875 618.9375 492.785156 C 618.9375 492.730469 618.945312 492.683594 618.9375 492.636719 C 618.9375 492.546875 618.9375 492.460938 618.945312 492.367188 C 618.953125 492.28125 618.964844 492.203125 618.980469 492.121094 C 618.992188 492.042969 619.003906 491.964844 619.023438 491.882812 C 619.050781 491.792969 619.085938 491.710938 619.117188 491.621094 C 619.136719 491.582031 619.144531 491.535156 619.164062 491.496094 C 619.175781 491.46875 619.191406 491.441406 619.210938 491.414062 C 619.25 491.335938 619.296875 491.257812 619.347656 491.183594 C 619.390625 491.117188 619.429688 491.050781 619.476562 490.992188 C 619.527344 490.925781 619.585938 490.867188 619.648438 490.808594 C 619.699219 490.746094 619.753906 490.6875 619.820312 490.636719 C 619.878906 490.582031 619.949219 490.535156 620.015625 490.488281 C 620.082031 490.441406 620.140625 490.398438 620.214844 490.355469 C 620.289062 490.3125 620.359375 490.277344 620.441406 490.246094 C 620.511719 490.210938 620.585938 490.179688 620.664062 490.160156 C 620.738281 490.132812 620.816406 490.113281 620.890625 490.09375 C 620.980469 490.074219 621.066406 490.054688 621.160156 490.046875 C 621.1875 490.039062 621.214844 490.035156 621.242188 490.027344 L 638.464844 488.492188 L 620.40625 480.15625 C 620.183594 480.058594 619.992188 479.917969 619.8125 479.765625 C 619.785156 479.734375 619.753906 479.707031 619.71875 479.679688 C 619.527344 479.488281 619.363281 479.277344 619.238281 479.046875 C 619.214844 479.007812 619.195312 478.96875 619.183594 478.925781 C 619.066406 478.675781 618.984375 478.40625 618.953125 478.128906 C 618.953125 478.109375 618.9375 478.09375 618.9375 478.074219 C 618.9375 478.027344 618.945312 477.980469 618.9375 477.9375 C 618.9375 477.84375 618.9375 477.757812 618.945312 477.664062 C 618.953125 477.578125 618.964844 477.5 618.980469 477.421875 C 618.992188 477.339844 619.003906 477.261719 619.023438 477.183594 C 619.050781 477.089844 619.085938 477.003906 619.117188 476.917969 C 619.136719 476.878906 619.144531 476.832031 619.164062 476.792969 C 619.175781 476.765625 619.191406 476.738281 619.210938 476.714844 C 619.25 476.632812 619.296875 476.554688 619.347656 476.480469 C 619.390625 476.414062 619.429688 476.347656 619.476562 476.289062 C 619.527344 476.222656 619.585938 476.164062 619.648438 476.105469 C 619.699219 476.046875 619.753906 475.984375 619.820312 475.933594 C 619.878906 475.878906 619.945312 475.832031 620.015625 475.789062 C 620.082031 475.742188 620.140625 475.6875 620.214844 475.65625 C 620.289062 475.609375 620.359375 475.574219 620.441406 475.542969 C 620.511719 475.511719 620.585938 475.476562 620.664062 475.449219 C 620.738281 475.429688 620.816406 475.410156 620.890625 475.390625 C 620.980469 475.371094 621.066406 475.351562 621.160156 475.339844 C 621.1875 475.339844 621.214844 475.324219 621.242188 475.324219 L 638.464844 473.792969 L 620.40625 465.457031 C 620.183594 465.355469 619.992188 465.21875 619.8125 465.066406 C 619.785156 465.03125 619.753906 465.003906 619.71875 464.980469 C 619.527344 464.789062 619.363281 464.574219 619.238281 464.34375 C 619.214844 464.304688 619.195312 464.265625 619.183594 464.226562 C 619.066406 463.972656 618.984375 463.703125 618.953125 463.425781 C 618.953125 463.40625 618.9375 463.394531 618.9375 463.378906 C 618.9375 463.328125 618.945312 463.28125 618.9375 463.234375 C 618.9375 463.140625 618.9375 463.054688 618.945312 462.964844 C 618.953125 462.878906 618.964844 462.796875 618.980469 462.71875 C 618.992188 462.640625 619.003906 462.558594 619.023438 462.480469 C 619.050781 462.386719 619.085938 462.300781 619.117188 462.214844 C 619.136719 462.175781 619.144531 462.128906 619.164062 462.082031 C 619.175781 462.0625 619.191406 462.039062 619.210938 462.011719 C 619.25 461.933594 619.296875 461.851562 619.347656 461.78125 C 619.390625 461.714844 619.429688 461.648438 619.476562 461.589844 C 619.527344 461.523438 619.585938 461.460938 619.648438 461.402344 C 619.699219 461.34375 619.753906 461.285156 619.820312 461.230469 C 619.878906 461.179688 619.949219 461.132812 620.015625 461.078125 C 620.082031 461.039062 620.140625 460.992188 620.214844 460.953125 C 620.289062 460.90625 620.359375 460.875 620.441406 460.839844 C 620.511719 460.808594 620.585938 460.773438 620.664062 460.75 C 620.738281 460.730469 620.816406 460.707031 620.890625 460.6875 C 620.980469 460.667969 621.066406 460.648438 621.160156 460.636719 C 621.1875 460.636719 621.214844 460.621094 621.242188 460.621094 L 638.464844 459.089844 L 620.40625 450.753906 C 620.183594 450.648438 619.992188 450.515625 619.8125 450.363281 C 619.785156 450.328125 619.753906 450.304688 619.71875 450.277344 C 619.527344 450.085938 619.363281 449.875 619.238281 449.640625 C 619.214844 449.601562 619.195312 449.5625 619.183594 449.523438 C 619.066406 449.273438 618.984375 449 618.953125 448.722656 C 618.953125 448.703125 618.9375 448.691406 618.9375 448.671875 C 618.9375 448.625 618.945312 448.578125 618.9375 448.53125 C 618.9375 448.4375 618.9375 448.351562 618.945312 448.253906 C 618.953125 448.175781 618.964844 448.09375 618.980469 448.015625 C 618.992188 447.9375 619.003906 447.859375 619.023438 447.777344 C 619.050781 447.6875 619.085938 447.601562 619.117188 447.515625 C 619.136719 447.472656 619.144531 447.429688 619.164062 447.382812 C 619.175781 447.363281 619.191406 447.335938 619.210938 447.308594 C 619.25 447.230469 619.296875 447.148438 619.347656 447.078125 C 619.390625 447.011719 619.429688 446.945312 619.476562 446.886719 C 619.527344 446.820312 619.585938 446.761719 619.648438 446.699219 C 619.699219 446.640625 619.753906 446.582031 619.820312 446.527344 C 619.878906 446.476562 619.949219 446.421875 620.015625 446.375 C 620.082031 446.332031 620.140625 446.285156 620.214844 446.25 C 620.289062 446.203125 620.359375 446.171875 620.441406 446.140625 C 620.511719 446.105469 620.585938 446.074219 620.664062 446.046875 C 620.738281 446.027344 620.816406 446.007812 620.890625 445.988281 C 620.980469 445.96875 621.066406 445.945312 621.160156 445.933594 C 621.1875 445.933594 621.214844 445.921875 621.242188 445.921875 L 638.464844 444.386719 L 620.40625 436.050781 C 620.183594 435.953125 619.992188 435.8125 619.8125 435.660156 C 619.785156 435.628906 619.753906 435.601562 619.71875 435.574219 C 619.527344 435.382812 619.363281 435.171875 619.238281 434.933594 C 619.214844 434.902344 619.195312 434.859375 619.183594 434.820312 C 619.066406 434.570312 618.984375 434.300781 618.953125 434.023438 C 618.953125 434 618.9375 433.988281 618.9375 433.96875 C 618.9375 433.921875 618.945312 433.875 618.9375 433.828125 C 618.9375 433.738281 618.9375 433.652344 618.945312 433.558594 C 618.953125 433.472656 618.964844 433.394531 618.980469 433.3125 C 618.992188 433.234375 619.003906 433.15625 619.023438 433.078125 C 619.050781 432.984375 619.085938 432.898438 619.117188 432.8125 C 619.136719 432.773438 619.144531 432.726562 619.164062 432.679688 C 619.175781 432.652344 619.191406 432.632812 619.210938 432.605469 C 619.25 432.527344 619.296875 432.449219 619.347656 432.367188 C 619.390625 432.308594 619.429688 432.242188 619.476562 432.183594 C 619.527344 432.117188 619.585938 432.058594 619.648438 432 C 619.699219 431.9375 619.753906 431.878906 619.820312 431.828125 C 619.878906 431.773438 619.945312 431.726562 620.015625 431.675781 C 620.082031 431.636719 620.140625 431.582031 620.214844 431.542969 C 620.289062 431.503906 620.359375 431.46875 620.441406 431.4375 C 620.511719 431.402344 620.585938 431.371094 620.664062 431.34375 C 620.738281 431.316406 620.808594 431.304688 620.890625 431.285156 C 620.980469 431.265625 621.066406 431.246094 621.160156 431.230469 C 621.1875 431.230469 621.214844 431.21875 621.242188 431.21875 L 638.464844 429.683594 L 620.40625 421.347656 C 620.183594 421.242188 619.992188 421.105469 619.8125 420.953125 C 619.785156 420.925781 619.753906 420.898438 619.71875 420.875 C 619.527344 420.679688 619.363281 420.46875 619.238281 420.230469 C 619.214844 420.199219 619.195312 420.160156 619.183594 420.121094 C 619.066406 419.867188 618.984375 419.597656 618.953125 419.320312 C 618.953125 419.300781 618.9375 419.285156 618.9375 419.265625 C 618.9375 419.21875 618.945312 419.175781 618.9375 419.128906 C 618.9375 419.035156 618.9375 418.949219 618.945312 418.851562 C 618.953125 418.769531 618.964844 418.691406 618.980469 418.613281 C 618.992188 418.53125 619.003906 418.453125 619.023438 418.375 C 619.050781 418.28125 619.085938 418.195312 619.117188 418.109375 C 619.136719 418.0625 619.144531 418.023438 619.164062 417.976562 C 619.175781 417.953125 619.191406 417.929688 619.210938 417.90625 C 619.25 417.824219 619.296875 417.746094 619.347656 417.667969 C 619.390625 417.609375 619.429688 417.542969 619.476562 417.480469 C 619.527344 417.414062 619.585938 417.351562 619.648438 417.289062 C 619.699219 417.230469 619.753906 417.179688 619.820312 417.125 C 619.878906 417.066406 619.949219 417.019531 620.015625 416.972656 C 620.082031 416.925781 620.140625 416.878906 620.214844 416.839844 C 620.289062 416.800781 620.367188 416.769531 620.441406 416.734375 C 620.511719 416.703125 620.585938 416.667969 620.664062 416.640625 C 620.738281 416.617188 620.808594 416.601562 620.890625 416.582031 C 620.980469 416.5625 621.066406 416.542969 621.160156 416.53125 C 621.1875 416.53125 621.214844 416.515625 621.242188 416.515625 L 638.464844 414.984375 L 620.40625 406.648438 C 619.347656 406.15625 618.792969 405.035156 618.972656 403.9375 L 593.121094 403.9375 L 593.121094 584.0625 C 592.375 583.625 591.515625 583.355469 590.582031 583.355469 C 589.65625 583.355469 588.792969 583.625 588.042969 584.0625 L 588.042969 403.9375 L 561.652344 403.9375 C 554.707031 403.9375 549.082031 398.3125 549.082031 391.371094 L 549.082031 286.082031 C 549.082031 279.140625 554.707031 273.515625 561.652344 273.515625 L 666.972656 273.515625 C 673.917969 273.515625 679.546875 279.140625 679.546875 286.082031 L 679.546875 391.371094 C 679.546875 398.3125 673.917969 403.9375 666.972656 403.9375 L 626.644531 403.9375 L 649.238281 414.363281 C 650.285156 414.84375 650.871094 415.96875 650.675781 417.097656 C 650.480469 418.234375 649.542969 419.09375 648.398438 419.195312 Z M 612.769531 341.597656 L 612.578125 351.433594 C 612.578125 351.453125 612.578125 351.480469 612.578125 351.5 C 612.597656 352.460938 613.390625 353.226562 614.351562 353.199219 C 615.300781 353.1875 616.070312 352.394531 616.050781 351.433594 L 615.859375 341.597656 C 616.890625 341.042969 617.597656 339.972656 617.597656 338.722656 C 617.597656 337.433594 616.835938 336.324219 615.75 335.789062 L 615.164062 305.175781 C 615.148438 304.722656 614.785156 304.355469 614.328125 304.339844 C 613.859375 304.335938 613.476562 304.710938 613.46875 305.175781 L 612.882812 335.789062 C 611.789062 336.324219 611.035156 337.433594 611.035156 338.722656 C 611.035156 339.972656 611.746094 341.042969 612.769531 341.597656 Z M 186.308594 65.578125 L 171.273438 57.539062 L 171.273438 60.390625 C 171.273438 61.316406 170.988281 62.167969 170.503906 62.886719 L 183.914062 70.058594 C 187.339844 71.886719 189.257812 75.558594 188.816406 79.386719 L 176.4375 179.511719 C 175.433594 187.617188 171.933594 195.046875 166.710938 200.964844 C 167.648438 201.195312 168.535156 201.699219 169.234375 202.464844 C 169.785156 203.066406 170.140625 203.765625 170.347656 204.5 C 176.332031 197.804688 180.332031 189.363281 181.476562 180.132812 L 193.863281 79.996094 C 194.550781 74.058594 191.585938 68.402344 186.308594 65.578125 Z M 146.925781 61.453125 L 146.925781 56.421875 C 146.925781 56.417969 146.925781 56.410156 146.925781 56.402344 L 146.863281 56.402344 L 146.863281 61.480469 L 146.925781 61.480469 C 146.925781 61.464844 146.925781 61.460938 146.925781 61.453125 Z M 92.710938 202.992188 C 93.398438 202.214844 94.273438 201.699219 95.210938 201.453125 C 89.738281 195.464844 86.078125 187.84375 85.046875 179.511719 L 72.667969 79.40625 C 72.226562 75.558594 74.144531 71.886719 77.570312 70.058594 L 90.980469 62.886719 C 90.496094 62.167969 90.210938 61.316406 90.210938 60.390625 L 90.210938 57.539062 L 75.167969 65.578125 C 69.898438 68.402344 66.933594 74.058594 67.625 80.015625 L 80.007812 180.132812 C 81.179688 189.613281 85.367188 198.273438 91.628906 205.054688 C 91.824219 204.316406 92.171875 203.601562 92.710938 202.992188 Z M 113.011719 400.226562 C 114.574219 402.125 115.507812 404.550781 115.507812 407.195312 C 115.507812 413.265625 110.585938 418.1875 104.515625 418.1875 C 98.445312 418.1875 93.519531 413.265625 93.519531 407.195312 C 93.519531 401.4375 97.949219 396.722656 103.582031 396.253906 C 105.605469 392.644531 108.140625 389.222656 110.945312 385.941406 C 108.90625 385.328125 106.75 384.992188 104.515625 384.992188 C 92.242188 384.992188 82.296875 394.933594 82.296875 407.195312 C 82.296875 419.457031 92.242188 429.402344 104.515625 429.402344 C 116.78125 429.402344 126.726562 419.457031 126.726562 407.195312 C 126.726562 400.882812 124.082031 395.203125 119.851562 391.160156 C 117.226562 394.101562 114.871094 397.128906 113.011719 400.226562 Z M 506.269531 494.410156 C 503.023438 494.859375 499.804688 495.425781 496.589844 496.007812 C 493.367188 496.589844 490.167969 497.253906 486.960938 497.875 C 483.765625 498.574219 480.566406 499.222656 477.378906 499.960938 C 474.191406 500.695312 471.011719 501.449219 467.851562 502.304688 C 467.699219 502.34375 467.59375 502.496094 467.613281 502.660156 C 467.636719 502.839844 467.804688 502.957031 467.980469 502.9375 C 471.222656 502.488281 474.441406 501.933594 477.664062 501.359375 C 480.882812 500.789062 484.085938 500.132812 487.296875 499.527344 C 490.492188 498.84375 493.699219 498.199219 496.886719 497.476562 C 500.074219 496.75 503.261719 496.007812 506.421875 495.15625 C 506.605469 495.109375 506.726562 494.925781 506.699219 494.734375 C 506.671875 494.523438 506.476562 494.375 506.269531 494.410156 Z M 509.371094 481.40625 C 506.242188 482.054688 503.148438 482.800781 500.054688 483.542969 C 496.964844 484.28125 493.890625 485.070312 490.789062 485.761719 C 487.722656 486.523438 484.585938 487.230469 481.53125 487.839844 C 480.015625 488.109375 478.484375 488.214844 477.046875 487.878906 C 475.605469 487.566406 474.238281 486.78125 473.417969 485.539062 C 473.332031 485.40625 473.152344 485.347656 473.007812 485.417969 C 472.84375 485.492188 472.777344 485.691406 472.847656 485.847656 C 473.589844 487.421875 475.136719 488.460938 476.742188 488.976562 C 478.398438 489.484375 480.117188 489.4375 481.738281 489.253906 C 484.964844 488.796875 488.046875 488.082031 491.171875 487.410156 C 494.28125 486.65625 497.375 485.867188 500.4375 484.988281 C 503.507812 484.105469 506.554688 483.179688 509.570312 482.148438 C 509.753906 482.085938 509.859375 481.894531 509.820312 481.703125 C 509.78125 481.5 509.578125 481.367188 509.371094 481.40625 Z M 390.882812 426.683594 L 349.527344 497.046875 L 349.792969 489.425781 L 340.355469 464.675781 C 340.433594 466.710938 338.207031 468.097656 336.40625 466.996094 L 333.082031 464.953125 C 332.527344 463.609375 331.988281 462.269531 331.40625 460.941406 C 330.476562 458.824219 329.589844 456.6875 328.617188 454.59375 C 326.71875 450.382812 324.78125 446.191406 322.773438 442.027344 L 322.765625 442.019531 C 322.621094 441.710938 322.28125 441.523438 321.925781 441.578125 C 319.550781 441.949219 317.195312 442.390625 314.828125 442.8125 C 312.46875 443.230469 310.113281 443.707031 307.761719 444.203125 C 307.570312 444.242188 307.4375 444.421875 307.457031 444.613281 C 307.476562 444.824219 307.667969 444.976562 307.878906 444.957031 C 310.265625 444.710938 312.660156 444.453125 315.035156 444.128906 C 317.214844 443.84375 319.398438 443.566406 321.566406 443.242188 C 323.394531 447.269531 325.285156 451.269531 327.214844 455.253906 C 328.195312 457.34375 329.265625 459.394531 330.289062 461.460938 C 331.320312 463.53125 332.394531 465.582031 333.492188 467.617188 C 333.5625 467.761719 333.742188 467.828125 333.894531 467.761719 C 333.90625 467.761719 333.90625 467.75 333.914062 467.742188 C 336.527344 472.429688 335.394531 474.636719 333.886719 475.667969 L 340.480469 492.96875 L 347.339844 500.140625 C 347.417969 500.226562 347.503906 500.285156 347.597656 500.339844 L 307.488281 568.582031 L 444.507812 568.582031 L 478.078125 520.144531 C 478.078125 520.296875 478.171875 520.4375 478.332031 520.460938 C 480.195312 520.773438 482.09375 520.867188 483.984375 520.839844 C 485.875 520.824219 487.765625 520.628906 489.640625 520.316406 C 491.511719 519.992188 493.363281 519.554688 495.152344 518.949219 C 496.953125 518.347656 498.710938 517.632812 500.363281 516.726562 C 500.523438 516.640625 500.601562 516.457031 500.550781 516.277344 C 500.492188 516.074219 500.273438 515.953125 500.074219 516.019531 C 498.289062 516.542969 496.523438 517.070312 494.738281 517.507812 C 492.953125 517.945312 491.160156 518.347656 489.355469 518.652344 C 487.550781 518.980469 485.730469 519.210938 483.898438 519.410156 C 482.066406 519.601562 480.230469 519.714844 478.371094 519.820312 C 478.277344 519.820312 478.210938 519.875 478.152344 519.933594 C 475.796875 520.308594 473.78125 520.421875 472.332031 520.117188 C 464.675781 518.523438 468.410156 514.988281 467.804688 512.484375 C 470.566406 513.738281 473.597656 514.378906 476.625 514.558594 C 479.746094 514.742188 482.867188 514.40625 485.914062 513.820312 C 488.945312 513.152344 491.90625 512.226562 494.765625 511.101562 C 497.628906 509.972656 500.410156 508.695312 503.140625 507.328125 C 503.308594 507.242188 503.394531 507.042969 503.335938 506.859375 C 503.261719 506.660156 503.042969 506.546875 502.84375 506.621094 C 499.953125 507.617188 497.117188 508.722656 494.25 509.695312 C 491.382812 510.671875 488.507812 511.578125 485.566406 512.164062 C 482.648438 512.828125 479.660156 513.136719 476.679688 513.132812 C 473.695312 513.117188 470.707031 512.695312 467.828125 511.796875 C 467.722656 511.769531 467.625 511.808594 467.539062 511.875 C 467.445312 511.730469 467.347656 511.589844 467.207031 511.457031 C 464.640625 509.019531 467.570312 503.273438 467.570312 503.273438 C 467.570312 503.273438 465.007812 503.273438 462.078125 503.273438 C 459.140625 503.273438 457.308594 501.445312 457.308594 496.675781 C 457.308594 491.917969 473.066406 485.328125 473.066406 485.328125 C 473.066406 485.328125 474.164062 480.558594 477.464844 477.269531 C 480.765625 473.96875 516.273438 464.941406 516.273438 464.941406 L 525.023438 452.320312 C 525.023438 452.320312 525.023438 452.371094 525.03125 452.40625 L 542.859375 426.683594 Z M 416.308594 401.0625 C 415.011719 398.316406 413.699219 395.582031 412.289062 392.890625 C 412.214844 392.75 412.042969 392.679688 411.890625 392.738281 C 411.71875 392.796875 411.632812 392.984375 411.695312 393.148438 C 412.726562 396.011719 413.855469 398.828125 415 401.636719 C 416.144531 404.445312 417.367188 407.214844 418.542969 410.011719 C 419.792969 412.773438 421.011719 415.550781 422.292969 418.300781 C 423.582031 421.046875 424.886719 423.78125 426.296875 426.480469 C 426.382812 426.644531 426.578125 426.730469 426.765625 426.664062 C 426.960938 426.589844 427.070312 426.375 426.996094 426.167969 C 425.957031 423.3125 424.820312 420.503906 423.664062 417.699219 C 422.511719 414.890625 421.28125 412.121094 420.09375 409.332031 C 418.828125 406.574219 417.605469 403.796875 416.308594 401.0625 Z M 312.628906 367.75 C 312.582031 367.929688 312.6875 368.105469 312.859375 368.148438 C 316.074219 368.972656 319.347656 369.554688 321.90625 371.273438 C 323.195312 372.085938 324.207031 373.285156 325.363281 374.5 C 326.496094 375.695312 327.804688 377 329.503906 377.582031 C 329.660156 377.640625 329.855469 377.582031 329.953125 377.429688 C 330.066406 377.25 330.011719 377.011719 329.835938 376.894531 L 329.828125 376.886719 C 328.503906 376.035156 327.511719 374.808594 326.5 373.519531 C 325.496094 372.230469 324.363281 370.84375 322.835938 369.867188 C 321.328125 368.894531 319.648438 368.296875 317.96875 367.980469 C 316.289062 367.652344 314.617188 367.519531 312.945312 367.503906 C 312.800781 367.503906 312.667969 367.605469 312.628906 367.75 Z M 354.722656 368.78125 C 353.734375 369.070312 352.8125 369.601562 352.019531 370.261719 C 350.453125 371.589844 349.347656 373.59375 349.414062 375.628906 C 349.414062 375.753906 349.492188 375.875 349.613281 375.925781 C 349.785156 376 349.976562 375.914062 350.050781 375.75 L 350.050781 375.742188 C 350.40625 374.890625 350.816406 374.117188 351.332031 373.421875 C 351.859375 372.734375 352.4375 372.09375 353.105469 371.5625 C 353.757812 371.007812 354.492188 370.566406 355.261719 370.183594 C 356.035156 369.804688 356.867188 369.546875 357.761719 369.355469 L 357.765625 369.355469 C 357.917969 369.324219 358.039062 369.210938 358.070312 369.058594 C 358.117188 368.847656 357.976562 368.636719 357.765625 368.597656 C 356.769531 368.378906 355.714844 368.484375 354.722656 368.78125 Z M 286.449219 243.726562 C 287.09375 243.667969 287.957031 244.113281 288.78125 244.601562 C 290.421875 245.574219 291.941406 246.847656 293.105469 248.269531 L 293.132812 248.304688 C 293.339844 248.554688 293.6875 248.671875 294.027344 248.566406 C 294.460938 248.429688 294.707031 247.964844 294.566406 247.53125 C 293.457031 243.992188 291.757812 240.628906 289.449219 237.738281 C 288.277344 236.296875 287.074219 234.941406 285.601562 233.746094 C 284.164062 232.582031 282.011719 231.730469 280.132812 232.617188 C 279.988281 232.6875 279.90625 232.859375 279.960938 233.011719 C 280.019531 233.183594 280.203125 233.277344 280.371094 233.21875 L 280.382812 233.21875 C 281.96875 232.683594 283.675781 233.441406 284.886719 234.597656 C 286.148438 235.769531 287.308594 237.164062 288.332031 238.585938 C 289.675781 240.476562 290.820312 242.503906 291.738281 244.632812 C 291.050781 244.113281 290.34375 243.628906 289.601562 243.191406 C 288.710938 242.710938 287.722656 242.0625 286.316406 242.140625 C 285.621094 242.15625 284.734375 242.691406 284.484375 243.476562 C 284.21875 244.25 284.382812 244.886719 284.496094 245.40625 C 285.527344 249.398438 287.28125 253.175781 289.734375 256.433594 C 289.851562 256.59375 290.070312 256.640625 290.238281 256.53125 C 290.421875 256.425781 290.480469 256.1875 290.367188 256.011719 C 288.324219 252.605469 286.8125 248.898438 285.984375 245.070312 C 285.890625 244.628906 285.878906 244.21875 285.957031 244.027344 C 286.042969 243.839844 286.148438 243.753906 286.449219 243.726562 Z M 303.136719 245.25 C 302.714844 243.960938 302.324219 242.65625 302.027344 241.335938 C 301.703125 240.019531 301.476562 238.683594 301.28125 237.335938 C 301.089844 235.988281 300.980469 234.617188 300.875 233.230469 C 300.863281 233.089844 300.765625 232.964844 300.617188 232.933594 C 300.441406 232.898438 300.269531 233.003906 300.226562 233.183594 C 299.917969 234.578125 299.824219 236.011719 299.851562 237.449219 C 299.871094 238.882812 300.070312 240.308594 300.375 241.71875 C 300.703125 243.113281 301.140625 244.496094 301.742188 245.796875 C 302.332031 247.105469 303.039062 248.363281 303.925781 249.484375 C 304.03125 249.617188 304.210938 249.671875 304.375 249.605469 C 304.574219 249.527344 304.664062 249.300781 304.585938 249.101562 C 304.070312 247.8125 303.5625 246.542969 303.136719 245.25 Z M 407.5625 228.773438 C 407.691406 228.886719 407.890625 228.90625 408.035156 228.792969 C 408.207031 228.667969 408.25 228.429688 408.121094 228.257812 C 407.085938 226.839844 405.820312 225.59375 404.441406 224.492188 C 403.058594 223.386719 401.535156 222.46875 399.9375 221.703125 C 398.328125 220.960938 396.648438 220.367188 394.917969 220.015625 C 393.191406 219.652344 391.425781 219.46875 389.671875 219.566406 C 389.527344 219.578125 389.402344 219.683594 389.375 219.835938 C 389.34375 220.007812 389.460938 220.179688 389.640625 220.214844 C 391.3125 220.523438 392.960938 220.894531 394.558594 221.398438 C 396.148438 221.914062 397.714844 222.5 399.207031 223.230469 C 400.714844 223.941406 402.15625 224.789062 403.554688 225.699219 C 404.949219 226.625 406.265625 227.671875 407.5625 228.773438 Z M 370.722656 297.789062 C 371.539062 297.871094 372.367188 297.835938 373.1875 297.761719 C 374.007812 297.671875 374.820312 297.539062 375.609375 297.300781 C 376.402344 297.0625 377.175781 296.777344 377.902344 296.363281 C 378.019531 296.289062 378.101562 296.152344 378.09375 296.003906 C 378.085938 295.785156 377.902344 295.613281 377.683594 295.621094 C 376.871094 295.65625 376.097656 295.753906 375.316406 295.832031 L 373.007812 296.085938 L 370.695312 296.363281 C 369.914062 296.453125 369.132812 296.535156 368.332031 296.6875 C 368.222656 296.707031 368.117188 296.785156 368.074219 296.910156 C 368.015625 297.082031 368.117188 297.273438 368.289062 297.328125 C 369.082031 297.597656 369.894531 297.71875 370.722656 297.789062 Z M 389.652344 282.824219 C 389.765625 282.703125 389.773438 282.519531 389.667969 282.394531 C 389.554688 282.253906 389.347656 282.242188 389.210938 282.355469 C 386.664062 284.476562 383.847656 286.234375 380.832031 287.511719 C 377.824219 288.785156 374.640625 289.660156 371.394531 289.921875 C 368.15625 290.265625 364.867188 290.023438 361.675781 289.335938 C 358.480469 288.648438 355.386719 287.457031 352.488281 285.863281 C 352.324219 285.773438 352.105469 285.816406 351.992188 285.976562 C 351.867188 286.148438 351.90625 286.386719 352.078125 286.511719 C 354.835938 288.503906 358.011719 289.921875 361.332031 290.789062 C 364.652344 291.65625 368.128906 291.90625 371.5625 291.609375 C 374.980469 291.226562 378.34375 290.3125 381.425781 288.8125 C 384.507812 287.320312 387.332031 285.300781 389.652344 282.824219 Z M 375.382812 263.996094 C 373.605469 265.113281 371.324219 265.445312 369.09375 265.296875 C 368.910156 265.285156 368.738281 265.40625 368.691406 265.589844 C 368.636719 265.792969 368.761719 266.007812 368.976562 266.050781 C 371.28125 266.613281 373.875 266.5 376.128906 265.292969 C 377.261719 264.722656 378.253906 263.746094 378.867188 262.574219 C 379.484375 261.417969 379.734375 260.128906 379.785156 258.898438 C 379.8125 256.414062 379.355469 254.140625 378.894531 251.859375 C 378.398438 249.578125 377.785156 247.324219 376.984375 245.136719 C 376.929688 244.996094 376.777344 244.90625 376.625 244.929688 C 376.449219 244.957031 376.328125 245.128906 376.363281 245.308594 C 376.757812 247.582031 377.160156 249.84375 377.492188 252.109375 C 377.777344 254.371094 378.214844 256.679688 378.101562 258.828125 C 378.0625 259.898438 377.882812 260.9375 377.425781 261.835938 C 376.988281 262.734375 376.253906 263.429688 375.382812 263.996094 Z M 357.859375 219.988281 C 358.039062 219.964844 358.167969 219.804688 358.175781 219.621094 C 358.175781 219.40625 358.011719 219.230469 357.792969 219.230469 C 355.664062 219.203125 353.527344 219.492188 351.445312 220.003906 C 349.363281 220.5 347.339844 221.265625 345.414062 222.21875 C 343.503906 223.183594 341.671875 224.324219 340.019531 225.695312 C 338.359375 227.042969 336.835938 228.5625 335.574219 230.277344 C 335.480469 230.402344 335.488281 230.574219 335.59375 230.691406 C 335.710938 230.824219 335.917969 230.832031 336.050781 230.710938 C 337.589844 229.308594 339.183594 228 340.878906 226.832031 C 342.570312 225.675781 344.328125 224.625 346.167969 223.730469 C 348 222.820312 349.902344 222.078125 351.855469 221.445312 C 353.804688 220.816406 355.808594 220.359375 357.859375 219.988281 Z M 323.203125 302.582031 L 320.601562 299.984375 C 319.78125 299.078125 319.046875 298.09375 318.261719 297.15625 L 317.085938 295.742188 L 316.058594 294.214844 L 314.023438 291.132812 L 314.003906 291.101562 C 313.898438 290.941406 313.679688 290.882812 313.507812 290.980469 C 313.316406 291.082031 313.25 291.3125 313.347656 291.496094 C 315.730469 295.878906 318.519531 300.144531 322.148438 303.648438 C 325.734375 307.164062 329.714844 310.316406 334.074219 312.824219 C 338.4375 315.308594 343.007812 317.410156 347.753906 319.003906 C 352.503906 320.597656 357.371094 321.785156 362.347656 322.367188 C 362.515625 322.382812 362.671875 322.277344 362.707031 322.105469 C 362.738281 321.933594 362.621094 321.761719 362.441406 321.726562 L 362.429688 321.726562 C 360.015625 321.277344 357.609375 320.683594 355.246094 319.96875 C 352.878906 319.300781 350.539062 318.519531 348.230469 317.660156 C 343.628906 315.929688 339.144531 313.867188 334.925781 311.367188 C 330.632812 308.976562 326.785156 305.902344 323.203125 302.582031 Z M 343.746094 432.984375 C 344.164062 433.148438 344.640625 432.949219 344.8125 432.535156 L 361.839844 390.53125 C 367.546875 376.535156 373.140625 362.5 378.714844 348.460938 C 378.796875 348.261719 378.703125 348.042969 378.511719 347.964844 C 378.3125 347.886719 378.085938 347.972656 378.007812 348.167969 C 372.148438 362.097656 366.304688 376.035156 360.578125 390.007812 L 343.886719 430.492188 C 333.902344 415.292969 323.757812 400.203125 313.699219 385.058594 L 298.160156 361.714844 L 282.480469 338.457031 C 282.378906 338.3125 282.183594 338.273438 282.035156 338.371094 C 281.882812 338.464844 281.84375 338.671875 281.9375 338.816406 L 297.179688 362.355469 L 312.5625 385.808594 C 322.835938 401.425781 333.015625 417.113281 343.371094 432.671875 C 343.464844 432.804688 343.589844 432.917969 343.746094 432.984375 Z M 285.476562 423.53125 C 286.519531 417.117188 286.679688 410.546875 285.734375 404.101562 C 284.773438 397.667969 282.796875 391.375 279.847656 385.578125 C 276.871094 379.800781 273.089844 374.453125 268.605469 369.773438 C 259.664062 360.378906 248.683594 353.085938 236.726562 348.230469 C 236.566406 348.164062 236.375 348.242188 236.308594 348.402344 C 236.238281 348.566406 236.316406 348.757812 236.480469 348.824219 L 236.5 348.832031 C 242.359375 351.328125 247.929688 354.589844 253.152344 358.238281 C 258.371094 361.90625 263.277344 366.039062 267.554688 370.746094 C 271.867188 375.417969 275.570312 380.640625 278.433594 386.300781 C 281.28125 391.957031 283.160156 398.078125 284.058594 404.339844 C 284.992188 410.601562 284.875 417.011719 283.875 423.273438 C 282.875 429.554688 281.152344 435.71875 279.179688 441.796875 C 277.195312 447.871094 274.902344 453.851562 272.414062 459.75 C 269.957031 465.667969 267.304688 471.511719 264.425781 477.230469 C 264.335938 477.414062 264.40625 477.652344 264.585938 477.75 C 264.777344 477.84375 265.007812 477.777344 265.109375 477.585938 C 271.144531 466.230469 276.414062 454.460938 280.601562 442.265625 C 282.699219 436.175781 284.417969 429.929688 285.476562 423.53125 Z M 171.902344 525.042969 L 160.445312 518.617188 L 148.886719 512.382812 C 145.019531 510.347656 141.136719 508.320312 137.203125 506.386719 C 137.058594 506.316406 136.871094 506.363281 136.785156 506.507812 C 136.695312 506.660156 136.742188 506.859375 136.890625 506.949219 C 140.621094 509.242188 144.410156 511.453125 148.199219 513.640625 L 159.632812 520.097656 L 171.171875 526.359375 C 175.042969 528.40625 178.917969 530.445312 182.84375 532.382812 C 183.023438 532.46875 183.242188 532.40625 183.339844 532.234375 C 183.453125 532.058594 183.398438 531.820312 183.214844 531.707031 C 179.484375 529.417969 175.695312 527.226562 171.902344 525.042969 Z M 171 539.28125 C 169.347656 539.191406 167.761719 539.558594 166.273438 540.070312 C 164.777344 540.585938 163.375 541.351562 162.160156 542.335938 C 162.035156 542.4375 162 542.609375 162.082031 542.746094 C 162.171875 542.90625 162.371094 542.957031 162.523438 542.867188 C 163.820312 542.136719 165.222656 541.628906 166.628906 541.253906 C 167.226562 541.101562 167.820312 541.015625 168.421875 540.933594 C 167.886719 541.359375 167.359375 541.78125 166.855469 542.230469 C 165.722656 543.28125 164.671875 544.417969 163.707031 545.617188 C 162.722656 546.800781 161.894531 548.109375 161.140625 549.4375 C 160.382812 550.773438 159.757812 552.179688 159.269531 553.628906 C 159.210938 553.800781 159.285156 553.996094 159.457031 554.089844 C 159.640625 554.191406 159.871094 554.125 159.972656 553.933594 C 160.679688 552.617188 161.453125 551.359375 162.265625 550.128906 C 163.078125 548.902344 164.003906 547.757812 164.9375 546.628906 C 165.882812 545.511719 166.90625 544.457031 167.992188 543.480469 C 169.058594 542.476562 170.195312 541.542969 171.390625 540.695312 L 171.410156 540.683594 C 171.597656 540.550781 171.714844 540.339844 171.730469 540.09375 C 171.753906 539.671875 171.429688 539.308594 171 539.28125 Z M 291.941406 502.460938 C 290.945312 502.621094 289.984375 502.777344 289.019531 502.863281 C 288.054688 502.945312 287.09375 503.003906 286.136719 502.984375 C 285.171875 502.984375 284.21875 502.90625 283.253906 502.804688 C 282.292969 502.699219 281.34375 502.519531 280.351562 502.347656 C 280.199219 502.324219 280.039062 502.390625 279.945312 502.527344 C 279.835938 502.707031 279.886719 502.949219 280.074219 503.0625 C 280.957031 503.632812 281.957031 504.007812 282.980469 504.28125 C 284 504.558594 285.066406 504.664062 286.125 504.675781 C 287.179688 504.664062 288.246094 504.550781 289.269531 504.273438 C 290.289062 504.007812 291.28125 503.625 292.175781 503.0625 C 292.28125 502.996094 292.347656 502.863281 292.320312 502.734375 C 292.292969 502.554688 292.121094 502.429688 291.941406 502.460938 Z M 310.371094 479.601562 C 310.523438 477.789062 310.433594 475.960938 310.007812 474.199219 C 309.976562 474.0625 309.84375 473.957031 309.691406 473.957031 C 309.511719 473.957031 309.367188 474.101562 309.367188 474.28125 C 309.375 476.027344 309.253906 477.738281 308.949219 479.417969 C 308.640625 481.089844 308.203125 482.734375 307.582031 484.316406 C 306.972656 485.894531 306.199219 487.410156 305.300781 488.855469 C 304.402344 490.296875 303.335938 491.644531 302.171875 492.929688 C 302.054688 493.0625 302.035156 493.257812 302.140625 493.410156 C 302.257812 493.582031 302.496094 493.628906 302.675781 493.503906 C 304.164062 492.480469 305.445312 491.164062 306.539062 489.703125 C 307.636719 488.25 308.5 486.621094 309.15625 484.917969 C 309.796875 483.203125 310.234375 481.417969 310.371094 479.601562 Z M 307.695312 471.867188 C 309.078125 472.097656 310.445312 472.363281 311.832031 472.5625 C 313.996094 473.804688 316.132812 475.101562 318.335938 476.285156 C 320.5625 477.527344 322.8125 478.742188 325.097656 479.886719 C 325.238281 479.957031 325.417969 479.914062 325.507812 479.78125 C 325.609375 479.636719 325.574219 479.4375 325.429688 479.332031 C 323.332031 477.863281 321.199219 476.460938 319.046875 475.09375 C 316.914062 473.691406 314.710938 472.402344 312.542969 471.054688 C 312.46875 471.007812 312.375 470.96875 312.285156 470.957031 L 312.25 470.949219 C 310.828125 470.675781 309.386719 470.484375 307.957031 470.253906 L 303.660156 469.601562 C 300.789062 469.214844 297.921875 468.828125 295.023438 468.570312 C 294.839844 468.554688 294.660156 468.675781 294.613281 468.859375 C 294.566406 469.066406 294.695312 469.277344 294.898438 469.324219 C 297.722656 470.003906 300.566406 470.558594 303.414062 471.113281 Z M 300.089844 458.652344 C 302.769531 459.730469 305.472656 460.722656 308.191406 461.6875 C 310.84375 462.660156 313.535156 463.523438 316.203125 464.445312 C 317.382812 465.488281 318.59375 466.492188 319.78125 467.523438 L 323.511719 470.683594 C 326.023438 472.761719 328.542969 474.828125 331.144531 476.804688 C 331.269531 476.90625 331.453125 476.890625 331.574219 476.777344 C 331.699219 476.652344 331.699219 476.449219 331.574219 476.316406 C 329.257812 474.007812 326.871094 471.792969 324.476562 469.582031 L 320.839844 466.316406 C 319.617188 465.230469 318.421875 464.125 317.183594 463.070312 L 317.164062 463.054688 C 317.085938 462.988281 316.992188 462.9375 316.894531 462.902344 C 314.140625 462.039062 311.417969 461.113281 308.648438 460.300781 C 305.890625 459.460938 303.125 458.644531 300.328125 457.917969 C 300.140625 457.871094 299.949219 457.972656 299.878906 458.152344 C 299.796875 458.347656 299.890625 458.574219 300.089844 458.652344 Z M 333.789062 437.28125 L 333.769531 437.226562 C 333.75 437.175781 333.710938 437.117188 333.667969 437.070312 C 332.1875 435.34375 330.699219 433.617188 329.105469 431.984375 C 328.980469 431.859375 328.777344 431.828125 328.625 431.933594 C 328.445312 432.046875 328.390625 432.28125 328.503906 432.460938 C 329.707031 434.34375 331.023438 436.144531 332.347656 437.933594 C 333.207031 440.421875 334.152344 442.878906 335.144531 445.320312 C 335.640625 446.554688 336.183594 447.773438 336.71875 448.996094 C 337.242188 450.222656 337.824219 451.425781 338.425781 452.625 C 338.488281 452.761719 338.640625 452.835938 338.792969 452.796875 C 338.972656 452.75 339.070312 452.570312 339.027344 452.398438 C 338.675781 451.101562 338.3125 449.8125 337.894531 448.550781 C 337.484375 447.28125 337.082031 446.007812 336.632812 444.757812 C 335.738281 442.246094 334.808594 439.746094 333.789062 437.28125 Z M 311.027344 401.703125 C 308.453125 402.679688 307.164062 405.554688 308.152344 408.121094 L 317.605469 432.949219 L 321.390625 431.25 L 328.035156 432.34375 L 317.453125 404.578125 C 316.476562 402.007812 313.597656 400.71875 311.027344 401.703125 Z M 277.890625 301.847656 C 282.375 295.925781 286.613281 289.097656 290.566406 281.691406 C 294.429688 285.25 297.925781 288.113281 300.421875 290.0625 C 299.804688 291.140625 299.070312 292.164062 298.285156 293.136719 C 296.804688 294.894531 295.070312 296.472656 293.121094 297.742188 C 292.960938 297.84375 292.894531 298.054688 292.972656 298.226562 C 293.058594 298.417969 293.285156 298.511719 293.484375 298.417969 C 295.71875 297.414062 297.6875 295.886719 299.375 294.101562 C 300.222656 293.214844 300.988281 292.242188 301.644531 291.1875 C 301.636719 291.324219 301.644531 291.46875 301.628906 291.609375 C 301.511719 292.945312 301.242188 294.261719 300.882812 295.554688 C 300.175781 298.152344 298.964844 300.621094 297.371094 302.847656 C 297.285156 302.980469 297.292969 303.15625 297.40625 303.269531 C 297.535156 303.394531 297.742188 303.394531 297.867188 303.261719 C 299.863281 301.246094 301.347656 298.714844 302.292969 295.992188 C 302.714844 294.75 302.984375 293.460938 303.164062 292.15625 C 303.867188 292.671875 304.253906 292.945312 304.253906 292.945312 C 304.253906 292.945312 304.253906 288.992188 304.242188 282.40625 C 304.234375 279.5625 304.222656 276.234375 304.210938 272.503906 C 303.371094 273.515625 302.292969 273.9375 300.894531 273.503906 C 298.742188 272.828125 295.964844 270.660156 293.085938 267.585938 C 286.945312 261.007812 280.363281 250.273438 278.453125 241.003906 C 278.007812 238.871094 277.824219 236.8125 277.945312 234.894531 C 278.179688 231.140625 279.609375 227.949219 282.738281 225.859375 C 289.449219 221.390625 294.679688 223.355469 298.402344 226.851562 C 297.882812 228.449219 297.496094 230.097656 297.285156 231.777344 C 297.066406 233.6875 297.027344 235.617188 297.234375 237.527344 C 297.429688 239.4375 297.828125 241.328125 298.496094 243.113281 C 298.5625 243.277344 298.734375 243.390625 298.917969 243.363281 C 299.125 243.332031 299.269531 243.132812 299.242188 242.921875 C 298.972656 241.082031 298.773438 239.257812 298.726562 237.429688 C 298.695312 235.605469 298.746094 233.777344 298.964844 231.972656 C 299.105469 230.671875 299.347656 229.390625 299.632812 228.105469 C 301.589844 230.308594 303.046875 232.839844 303.972656 234.738281 C 303.957031 233.199219 303.945312 231.652344 303.933594 230.089844 C 303.867188 223.460938 313.792969 223.269531 313.15625 202.53125 C 312.953125 195.859375 318.507812 190.519531 324.914062 192.390625 C 346.476562 198.671875 380.46875 207.953125 414.886719 187.492188 C 415.144531 187.339844 415.398438 187.207031 415.648438 187.054688 C 415.648438 187.054688 414.511719 150.074219 384.351562 142.117188 C 359.996094 135.683594 336.53125 129.113281 314.035156 135.730469 C 309.445312 138.699219 284.457031 155.378906 270.921875 175.234375 C 266.445312 165.75 268.414062 154.371094 276.039062 147.160156 C 280.601562 142.835938 286.433594 138.363281 293.410156 135.070312 C 295.144531 134.25 296.960938 133.679688 298.8125 133.3125 C 285.972656 121.847656 264.917969 111.695312 243.628906 138.652344 C 209.488281 181.886719 243.054688 238.644531 235.085938 269.363281 C 234.3125 272.351562 233.4375 275.203125 232.492188 277.917969 C 230.105469 281.957031 227.449219 285.832031 224.460938 289.449219 C 221.410156 293.25 218.019531 296.757812 214.402344 300.023438 C 210.777344 303.289062 206.882812 306.257812 202.796875 308.957031 C 202.65625 309.046875 202.609375 309.234375 202.691406 309.378906 C 202.777344 309.535156 202.972656 309.597656 203.125 309.511719 C 207.464844 307.144531 211.542969 304.292969 215.332031 301.101562 C 219.136719 297.910156 222.59375 294.332031 225.769531 290.519531 C 227.105469 288.851562 228.378906 287.140625 229.597656 285.386719 C 220.828125 305.769531 208.914062 316.5625 208.914062 316.5625 C 208.914062 316.5625 261.277344 323.789062 277.890625 301.847656 Z M 394.554688 243.019531 C 394.554688 246.007812 396.21875 248.433594 398.277344 248.433594 C 400.332031 248.433594 402.007812 246.007812 402.007812 243.019531 C 402.007812 240.027344 400.332031 237.601562 398.277344 237.601562 C 396.21875 237.601562 394.554688 240.027344 394.554688 243.019531 Z M 347.820312 237.601562 C 349.878906 237.601562 351.550781 240.027344 351.550781 243.019531 C 351.550781 246.007812 349.878906 248.433594 347.820312 248.433594 C 345.765625 248.433594 344.097656 246.007812 344.097656 243.019531 C 344.097656 240.027344 345.765625 237.601562 347.820312 237.601562 " fill-opacity="1" fill-rule="nonzero"/></g></svg>